<svg width="48" height="44" viewBox="0 0 48 44" fill="none" xmlns="http://www.w3.org/2000/svg"><path d="M46.858 1.438a.884.884 0 0 0-.712-.189l-7.978 1.364L20.3 1.115a.87.87 0 0 0-.945.783.863.863 0 0 0 .796.928l17.182 1.44V19.8L12.65 21.868a10.25 10.25 0 0 1-2.412-.08 10.063 10.063 0 0 1-5.142-2.4 9.801 9.801 0 0 1-3.348-7.356 9.801 9.801 0 0 1 3.35-7.356c2.082-1.833 4.764-2.713 7.551-2.48l4.792.402a.87.87 0 0 0 .945-.782.863.863 0 0 0-.796-.928L12.797.486c-3.273-.274-6.422.76-8.866 2.91a11.506 11.506 0 0 0-3.93 8.636c0 3.294 1.432 6.442 3.93 8.635a11.81 11.81 0 0 0 5.373 2.694l1.922 17.44c.194 1.768 1.705 3.1 3.515 3.1h5.3c1.003 0 1.962-.42 2.632-1.152.67-.733.992-1.716.885-2.697l-.585-5.3a.87.87 0 0 0-.962-.76.862.862 0 0 0-.774.945l.584 5.3c.055.504-.104.988-.448 1.365a1.781 1.781 0 0 1-1.331.583H14.74c-.916 0-1.68-.674-1.778-1.568l-1.875-17.018a11.882 11.882 0 0 0 1.709-.02l7.121-.598.92 8.338a.868.868 0 0 0 .962.761.862.862 0 0 0 .774-.946l-.915-8.299 16.51-1.383 7.977 1.365a.88.88 0 0 0 .712-.189.853.853 0 0 0 .311-.657V2.095a.852.852 0 0 0-.31-.657zM45.422 20.95l-6.342-1.085V4.2l6.342-1.085V20.95z" fill="#6B5F44"/><path d="M18.713 30.58l-.393-2.94a2.21 2.21 0 0 0-.751-1.385 2.29 2.29 0 0 0-3.186.207c-.43.48-.627 1.12-.543 1.754l.394 2.941c.147 1.1 1.11 1.93 2.239 1.93a2.28 2.28 0 0 0 1.7-.756 2.19 2.19 0 0 0 .54-1.752zm-1.854.62a.511.511 0 0 1-.386.171.51.51 0 0 1-.507-.438l-.394-2.94a.51.51 0 0 1 .508-.57.5.5 0 0 1 .507.438l.394 2.942a.49.49 0 0 1-.122.396z" fill="#6B5F44"/></svg>