<svg width="70" height="66" viewBox="0 0 70 66" fill="none" xmlns="http://www.w3.org/2000/svg"><path d="M42 51l15 8M4.616 65H64.22m-7.708 0v-7.456m0-31.544L68 52.096l-11.488 5.448m0-31.544v20.934m0-20.934l-9.373 17.493m9.373 14.051v-10.61M42 52.096l5.14-8.603m0 0l9.372 3.44M22.934 53.34L2 43.954l20.643-40.67 18.317 40.67-18.026 9.386z" stroke="#fff" stroke-width="2"/><path d="M22.934 65V42.736m0 0L6.07 35.973l4.573-8.737 12.29 5.355m0 10.145V32.591m0 0v-8.173m0 0V3l-8.86 17.473 8.86 3.945z" stroke="#fff" stroke-width="2"/><path d="M12.626 54.193L4.616 64.43H64.22l-15.724-3.874h-5.632l-7.708-4.427-9.19 3.32-13.34-5.257z" fill="#fff"/></svg>