<svg width="64" height="64" viewBox="0 0 64 64" fill="none" xmlns="http://www.w3.org/2000/svg"><path d="M27.839 37.24v13.207h-6.177V14.9H35.26c3.972 0 7.121 1.034 9.449 3.101 2.343 2.067 3.515 4.801 3.515 8.203 0 3.483-1.147 6.193-3.442 8.13-2.279 1.937-5.477 2.905-9.595 2.905H27.84zm0-4.957h7.421c2.198 0 3.874-.513 5.03-1.538 1.155-1.042 1.733-2.539 1.733-4.492 0-1.92-.586-3.45-1.758-4.59-1.172-1.155-2.783-1.75-4.834-1.782H27.84v12.402z" fill="#fff"/><circle cx="32" cy="32" r="30.5" stroke="#fff" stroke-width="3"/></svg>