<svg width="60" height="60" viewBox="0 0 60 60" fill="none" xmlns="http://www.w3.org/2000/svg"><path d="M58.997 51.975L35.361 21.299l.102-.101a3.004 3.004 0 0 0 0-4.242l-4.294-4.293a3.07 3.07 0 0 0-3.157-.667A14.078 14.078 0 0 0 4.13 4.128c-5.494 5.507-5.494 14.422 0 19.928a13.963 13.963 0 0 0 7.852 3.951 2.997 2.997 0 0 0 .684 3.16l4.293 4.293a3.003 3.003 0 0 0 4.242 0l.1-.1 30.705 23.658a4.971 4.971 0 0 0 2.917.982 5.104 5.104 0 0 0 3.562-1.519 4.91 4.91 0 0 0 .513-6.506zM5.543 22.643C.83 17.917.83 10.267 5.543 5.542a12.072 12.072 0 0 1 20.606 7.9L13.444 26.146a11.977 11.977 0 0 1-7.9-3.504zm14.965 10.682l-.001.001-.72.72c-.392.39-1.024.39-1.416 0l-4.292-4.292a1.002 1.002 0 0 1 0-1.414l14.264-14.264a.999.999 0 0 1 1.413.001l4.292 4.292c.39.391.39 1.024 0 1.415l-.722.723-12.818 12.818zm36.574 23.73a3.03 3.03 0 0 1-3.886.358l-30.47-23.479 11.21-11.209 23.456 30.441c.856 1.2.725 2.84-.31 3.89z" fill="#fff"/><path d="M34.739 30.475a3.088 3.088 0 0 0-4.262 0 3.015 3.015 0 0 0 0 4.263l1.423 1.423v.002h.002l1.423 1.424a3.014 3.014 0 1 0 4.262-4.262l-2.848-2.85zm-2.131 3.566l-.717-.716a1.015 1.015 0 0 1 1.434-1.435l.717.717-1.434 1.434zm3.565 2.131a1.04 1.04 0 0 1-1.434 0l-.717-.717 1.434-1.434.717.718a1.014 1.014 0 0 1 0 1.433zM9.113 4.84l-.712.713a1 1 0 1 0 1.414 1.413l.712-.712A1 1 0 1 0 9.113 4.84zm10.218.448a1 1 0 0 0-1.672-.448l-.712.712a1 1 0 0 0 .707 1.707c.265 0 .52-.105.707-.293l.711-.712a1 1 0 0 0 .26-.966zm-3.892 3.048a1.005 1.005 0 0 0-.83-.207.673.673 0 0 0-.19.06.544.544 0 0 0-.17.09.952.952 0 0 0-.37.45.992.992 0 0 0-.07.38c-.001.265.103.52.29.71l.15.12c.05.04.108.07.17.09.06.029.123.05.19.06a.99.99 0 0 0 1.12-.6c.025-.061.045-.125.06-.19a1.26 1.26 0 0 0 .02-.19 1.005 1.005 0 0 0-.37-.773zm5.77.054a1 1 0 0 0-1.414-1.414l-.712.713a1 1 0 1 0 1.414 1.414l.712-.713zm-3.561 2.149a1.695 1.695 0 0 0-.15-.13c-.06-.03-.11-.06-.18-.09l-.18-.06a1.022 1.022 0 0 0-.9.28 1 1 0 0 0-.3.7c.009.55.45.995 1 1.01a1.01 1.01 0 0 0 1-1.01.985.985 0 0 0-.08-.38.971.971 0 0 0-.21-.32zm-2.842-4.704c.265 0 .52-.105.706-.293l.712-.712a1 1 0 1 0-1.414-1.414l-.712.712a1 1 0 0 0 .707 1.707zm7.826 3.992a1 1 0 0 0-1.412-.003l-.713.712a1 1 0 0 0 1.414 1.415l.713-.712a1 1 0 0 0-.002-1.412z" fill="#fff"/></svg>