<svg width="75" height="75" viewBox="0 0 75 75" fill="none" xmlns="http://www.w3.org/2000/svg"><path d="M65.129 16.77c-.37.41-.91.74-1.62.99a6.978 6.978 0 0 1-2.338.377c-1.303 0-2.345-.399-3.124-1.197-.78-.797-1.196-1.907-1.251-3.329l-.007-.861c0-.98.173-1.834.52-2.563.346-.734.84-1.297 1.483-1.689.647-.396 1.395-.595 2.242-.595 1.24 0 2.201.285 2.885.855.688.565 1.09 1.41 1.203 2.536h-2.31c-.082-.556-.26-.953-.534-1.19-.273-.236-.66-.355-1.162-.355-.601 0-1.066.255-1.394.766-.328.51-.495 1.24-.5 2.187v.602c0 .993.17 1.74.506 2.242.342.497.878.745 1.607.745.624 0 1.09-.139 1.395-.417v-1.545h-1.668v-1.647h4.067v4.088zM58.75 36.25h-7.5a2.5 2.5 0 0 0-2.5 2.5v7.5a2.5 2.5 0 0 0 2.5 2.5H65a1.25 1.25 0 0 0 1.06-1.912l-6.25-10a1.25 1.25 0 0 0-1.06-.587zm-7.5 10v-7.5h6.808l4.687 7.5H51.25zM30 48.75h10a2.5 2.5 0 0 0 2.5-2.5v-7.5a2.5 2.5 0 0 0-2.5-2.5H30a2.5 2.5 0 0 0-2.5 2.5v7.5a2.5 2.5 0 0 0 2.5 2.5zm0-10h10v7.5H30v-7.5zm-10-2.5H10a2.5 2.5 0 0 0-2.5 2.5v7.5a2.5 2.5 0 0 0 2.5 2.5h10a2.5 2.5 0 0 0 2.5-2.5v-7.5a2.5 2.5 0 0 0-2.5-2.5zm0 10H10v-7.5h10v7.5zm-3.75 6.25h-2.5a1.25 1.25 0 1 0 0 2.5h2.5a1.25 1.25 0 1 0 0-2.5zm17.5 0a1.25 1.25 0 0 0 0 2.5h2.5a1.25 1.25 0 1 0 0-2.5h-2.5zm22.5 0h-2.5a1.25 1.25 0 1 0 0 2.5h2.5a1.25 1.25 0 1 0 0-2.5z" fill="#fff"/><path d="M71.25 27.5A3.75 3.75 0 0 0 75 23.75v-20A3.75 3.75 0 0 0 71.25 0h-20a3.75 3.75 0 0 0-3.75 3.75v20a3.75 3.75 0 0 0 3.75 3.75H60v3.768c-.046 0-.089-.018-.135-.018H3.75A3.75 3.75 0 0 0 0 35v30.001a3.75 3.75 0 0 0 3.75 3.75h3.862a7.491 7.491 0 0 0 14.775 0h28.975a7.491 7.491 0 0 0 14.776 0h5.112a3.75 3.75 0 0 0 3.75-3.75V53.218a3.75 3.75 0 0 0-.57-1.987L63.045 33.013a3.775 3.775 0 0 0-.545-.666V27.5h8.75zM15 72.501a5 5 0 1 1 0-10 5 5 0 0 1 0 10zm43.75 0a5 5 0 1 1 0-10 5 5 0 0 1 0 10zm13.56-19.945c.124.199.19.428.19.663v8.032h-3.75a1.25 1.25 0 1 0 0 2.5h3.75v1.25c0 .69-.56 1.25-1.25 1.25h-5.112a7.491 7.491 0 0 0-14.776 0H22.387a7.491 7.491 0 0 0-14.774 0H3.75c-.69 0-1.25-.56-1.25-1.25v-1.25H5a1.25 1.25 0 1 0 0-2.5H2.5v-26.25c0-.69.56-1.25 1.25-1.25h56.115a1.24 1.24 0 0 1 1.059.587L72.31 52.556zM51.25 25c-.69 0-1.25-.56-1.25-1.25v-20c0-.69.56-1.25 1.25-1.25h20c.69 0 1.25.56 1.25 1.25v20c0 .69-.56 1.25-1.25 1.25h-20z" fill="#fff"/><path d="M48.75 61.251H25a1.25 1.25 0 1 0 0 2.5h23.75a1.25 1.25 0 1 0 0-2.5z" fill="#fff"/></svg>