<svg width="64" height="79" viewBox="0 0 64 79" fill="none" xmlns="http://www.w3.org/2000/svg"><path d="M43.055 19.503a.83.83 0 0 0 0-1.184.855.855 0 0 0-1.199 0 .83.83 0 0 0 0 1.184.855.855 0 0 0 1.199 0zm2.308 2.341a.829.829 0 0 0 0-1.183.854.854 0 0 0-1.198 0 .829.829 0 0 0 0 1.183.854.854 0 0 0 1.198 0zm-3.973-.656a.83.83 0 0 0-.001-1.183.855.855 0 0 0-1.199 0 .83.83 0 0 0 0 1.184.855.855 0 0 0 1.2-.001zm2.307 2.339a.829.829 0 0 0-.001-1.182.854.854 0 0 0-1.198 0 .829.829 0 0 0 .001 1.183.854.854 0 0 0 1.198 0zm-4.048-.728a.83.83 0 0 0 0-1.184.855.855 0 0 0-1.199 0 .83.83 0 0 0 0 1.184.855.855 0 0 0 1.199 0zm2.381 2.409a.829.829 0 0 0-.002-1.183.854.854 0 0 0-1.197.001.829.829 0 0 0 0 1.183.854.854 0 0 0 1.198-.001zM23.167 39.17a.829.829 0 0 0 0-1.183.854.854 0 0 0-1.198.001.829.829 0 0 0 0 1.183.854.854 0 0 0 1.198-.001zm2.313 2.338a.829.829 0 0 0 0-1.183.854.854 0 0 0-1.197 0 .829.829 0 0 0 0 1.182.854.854 0 0 0 1.197.001zm-4.053-.728a.829.829 0 0 0-.002-1.183.854.854 0 0 0-1.197.002.829.829 0 0 0 .001 1.182.854.854 0 0 0 1.198-.001zm2.387 2.412a.829.829 0 0 0 .001-1.183.854.854 0 0 0-1.197 0 .829.829 0 0 0 0 1.182.854.854 0 0 0 1.197 0zm-4.049-.725a.83.83 0 0 0 0-1.183.855.855 0 0 0-1.199 0 .83.83 0 0 0 0 1.183.855.855 0 0 0 1.199 0zm2.389 2.264a.83.83 0 0 0 0-1.183.855.855 0 0 0-1.198 0 .83.83 0 0 0 0 1.183.855.855 0 0 0 1.198 0z" fill="#fff"/><path d="M59.386 43.937s-9-7.527-14.822-13.382c7.623-7.215 12.493-11.187 12.599-11.292l.105-.105c3.918-3.868 4.447-9.41 1.165-13.173l-.53-.523c-1.587-1.359-3.705-2.09-5.822-2.09-2.753 0-5.4 1.15-7.518 3.24l-.105.104c0 .105-4.13 4.81-11.33 12.337-8.999-9.2-12.28-13.173-12.28-13.173-1.165-1.15-4.447-2.405-6.777-2.405-.847 0-1.694.21-2.118.628-1.588 1.568.212 7.214 1.8 8.782 0 0 4.023 3.346 13.446 12.128l-1.482 1.464c-9-9.305-12.282-13.278-12.282-13.278-1.164-1.15-4.446-2.405-6.776-2.405-.847 0-1.694.21-2.118.627-1.587 1.569.213 7.214 1.801 8.783 0 0 4.023 3.24 13.34 12.128-7.729 7.318-12.81 11.501-12.81 11.501l-.106.104c-4.023 3.973-4.447 9.305-1.165 13.174l.53.522c1.694 1.36 3.705 2.196 5.823 2.196 2.647 0 5.294-1.15 7.517-3.346l.106-.104c.105-.104 4.341-5.123 11.752-12.756 5.93 5.855 13.552 14.637 13.552 14.637.741.732 2.118 1.15 3.388 1.15 1.377 0 2.753-.418 3.6-1.254 1.588-1.568 1.694-5.332.106-6.9 0 0-9-7.529-14.822-13.383l-.106-.105 1.694-1.673c5.929 5.96 13.552 14.847 13.552 14.847.741.732 2.118 1.15 3.388 1.15 1.377 0 2.753-.418 3.6-1.255 1.694-1.568 1.694-5.332.105-6.9zM46.258 8.285c1.694-1.673 3.705-2.51 5.823-2.51 1.165 0 2.33.314 3.282.837.847.418 1.482 1.15 1.906 1.882 1.588 2.718.953 6.273-1.694 8.991-.53.419-5.4 4.497-12.705 11.397-.847-.836-1.588-1.568-2.33-2.405.106-.314.106-.628-.212-.836a.83.83 0 0 0-.847-.21c-.423-.418-.846-.94-1.27-1.359a.806.806 0 0 0-.212-.836.83.83 0 0 0-.846-.21c-.847-.835-1.588-1.672-2.33-2.404 6.882-7.11 11.011-11.814 11.435-12.337zM17.67 54.915c-1.694 1.673-3.706 2.614-5.823 2.614-1.695 0-3.177-.628-4.447-1.777-2.647-2.928-2.33-6.9.847-10.142.635-.418 5.611-4.6 13.129-11.605.74.732 1.587 1.463 2.435 2.3 0 0-.106 0-.106.105a.814.814 0 0 0 0 1.15.84.84 0 0 0 1.165 0l.106-.105 1.27 1.255c-.106 0-.106.104-.106.104a.814.814 0 0 0 0 1.15.838.838 0 0 0 1.165 0s.106-.104.106-.209c.74.732 1.588 1.568 2.33 2.3-7.306 7.319-11.542 12.337-12.071 12.86zm32.61-1.881c.635.732.53 2.927-.106 3.555-.317.313-1.058.522-1.906.522-.847 0-1.482-.209-1.694-.418-.953-1.045-7.94-9.096-13.658-14.742C16.401 25.536 8.883 19.367 7.93 18.53c-.847-.941-1.8-4.078-1.694-5.332h.318c1.8 0 4.34 1.045 5.082 1.673.847 1.045 7.094 8.26 23.822 24.778 5.612 5.542 13.87 12.443 14.823 13.384zM35.352 36.2c-2.964-3.032-5.611-5.645-7.94-8.05l1.482-1.464c2.435 2.3 5.082 4.914 8.152 7.841L35.352 36.2zm22.34 12.965c-.317.314-1.059.523-1.906.523s-1.482-.21-1.694-.419c-.953-1.045-7.94-9.096-13.658-14.742-16.622-16.31-24.033-22.583-25.092-23.42-.847-.94-1.8-4.077-1.694-5.332h.317c1.8 0 4.341.941 5.083 1.673.846 1.045 7.093 8.365 23.822 24.779 5.611 5.541 13.87 12.546 14.822 13.383.741.732.636 2.928 0 3.555z" fill="#fff"/><path d="M25.4 32.123c-.423.418-.423 1.254 0 1.672.424.419 1.27.419 1.694 0 .424-.418.424-1.254 0-1.672-.423-.419-1.164-.419-1.694 0zm6.988 5.646c-.636 0-1.165.523-1.165 1.15 0 .314.105.628.317.836.212.21.53.314.847.314.318 0 .636-.104.847-.314.423-.418.423-1.254 0-1.672-.21-.105-.529-.314-.846-.314zm1.376-13.383c-.635 0-1.164.522-1.164 1.15 0 .313.105.628.317.836.424.419 1.27.419 1.694 0 .212-.21.318-.523.318-.836 0-.314-.106-.628-.318-.836-.212-.21-.53-.314-.847-.314zm5.294 6.378c-.212.21-.318.523-.318.836 0 .314.106.628.318.836.212.21.529.314.846.314.318 0 .636-.105.847-.314.212-.209.318-.522.318-.836 0-.313-.106-.628-.318-.836-.529-.418-1.27-.418-1.693 0z" fill="#fff"/></svg>