<svg width="47" height="46" viewBox="0 0 47 46" fill="none" xmlns="http://www.w3.org/2000/svg"><g clip-path="url(#clip0)" fill="#6B5F44"><path d="M38.73 7.42a.802.802 0 0 0-1.122.09.782.782 0 0 0 .091 1.11c3.415 2.87 5.36 7.034 5.335 11.427a14.734 14.734 0 0 1-3.657 9.642 16.222 16.222 0 0 0 1.146-6.142c-.025-3.243-.967-6.263-2.654-8.503-1.638-2.175-3.879-3.462-6.372-3.677L31.13 5.41c1.439.304 2.82.818 4.119 1.531a.8.8 0 0 0 1.082-.306.784.784 0 0 0-.31-1.072 16.556 16.556 0 0 0-4.991-1.779l-.09-1.45a.79.79 0 0 0-.564-.706 38.672 38.672 0 0 0-22.203 0 .79.79 0 0 0-.565.706l-.007.122-5.592 3.198a.78.78 0 0 0-.281 1.093l5.098 8.265-.586 9.506a.79.79 0 0 0 .746.835.794.794 0 0 0 .843-.739l1.323-21.44a.788.788 0 0 0 .044-.201 37.066 37.066 0 0 1 20.189.009l2.263 36.691H6.9l.712-11.538a.79.79 0 0 0-.746-.834.793.793 0 0 0-.843.738l-.718 11.634h-1.23a.796.796 0 0 0-.747.517L1.66 44.702a.781.781 0 0 0 .096.722.8.8 0 0 0 .652.337H27.91c.44 0 .796-.353.796-.788a.792.792 0 0 0-.796-.788H3.546l1.086-2.936h29.284l1.086 2.936h-3.909a.792.792 0 0 0-.796.788c0 .435.356.788.796.788h5.048a.8.8 0 0 0 .653-.337.782.782 0 0 0 .095-.722L35.22 40.19a.796.796 0 0 0-.747-.517h-1.23L31.596 12.96c2.436.285 4.046 1.764 4.996 3.026 1.486 1.973 2.316 4.662 2.339 7.572a14.68 14.68 0 0 1-1.264 6.097 1.437 1.437 0 0 0 .538 1.811 1.467 1.467 0 0 0 1.888-.212 16.31 16.31 0 0 0 4.533-11.198c.027-4.86-2.122-9.466-5.896-12.637zM6.996 12.262L3.51 6.614l3.973-2.272-.488 7.92z"/><path d="M19.274 7.73c-1.545 0-2.802 1.244-2.802 2.773V31.8c0 1.529 1.257 2.773 2.802 2.773 1.545 0 2.802-1.244 2.802-2.774V10.503c0-1.529-1.257-2.773-2.802-2.773zm-1.21 2.773c0-.66.543-1.197 1.21-1.197.667 0 1.21.537 1.21 1.197v1.635h-2.42v-1.635zm2.42 21.295c0 .66-.543 1.198-1.21 1.198-.667 0-1.21-.537-1.21-1.198v-3.43h2.42v3.43zm0-5.005h-2.42v-3.31h2.42v3.31zm0-4.885h-2.42v-3.31h2.42v3.31zm0-4.885h-2.42v-3.309h2.42v3.31z"/></g><defs><clipPath id="clip0"><path fill="#fff" d="M0 0h46.237v45.761H0z"/></clipPath></defs></svg>