<svg width="20" height="20" viewBox="0 0 20 20" fill="none" xmlns="http://www.w3.org/2000/svg"><path d="M14.586 0H5.414A5.42 5.42 0 0 0 0 5.414v9.172A5.42 5.42 0 0 0 5.414 20h9.172A5.42 5.42 0 0 0 20 14.586V5.414A5.42 5.42 0 0 0 14.586 0zM10 15.469A5.475 5.475 0 0 1 4.531 10 5.475 5.475 0 0 1 10 4.531 5.475 5.475 0 0 1 15.469 10 5.475 5.475 0 0 1 10 15.469zm5.6-9.648a1.618 1.618 0 0 1-1.617-1.616c0-.891.725-1.616 1.616-1.616.891 0 1.616.725 1.616 1.616 0 .891-.725 1.616-1.616 1.616z" fill="#523315"/><path d="M10 6.667A3.337 3.337 0 0 0 6.667 10 3.337 3.337 0 0 0 10 13.333 3.337 3.337 0 0 0 13.334 10 3.337 3.337 0 0 0 10 6.667zm5.6-2.905a.444.444 0 1 0 0 .888.444.444 0 0 0 0-.888z" fill="#523315"/></svg>