<svg width="14" height="14" viewBox="0 0 14 14" fill="none" xmlns="http://www.w3.org/2000/svg"><path d="M10.21 0H3.79C1.7 0 0 1.7 0 3.79v6.42C0 12.3 1.7 14 3.79 14h6.42C12.3 14 14 12.3 14 10.21V3.79C14 1.7 12.3 0 10.21 0zM7 10.828A3.832 3.832 0 0 1 3.172 7 3.832 3.832 0 0 1 7 3.172 3.832 3.832 0 0 1 10.828 7 3.832 3.832 0 0 1 7 10.828zm3.92-6.753a1.132 1.132 0 0 1 0-2.263 1.132 1.132 0 0 1 0 2.262z" fill="#fff"/><path d="M7 4.667A2.336 2.336 0 0 0 4.667 7 2.336 2.336 0 0 0 7 9.333 2.336 2.336 0 0 0 9.333 7 2.336 2.336 0 0 0 7 4.667zm3.92-2.034a.31.31 0 1 0 0 .622.31.31 0 0 0 0-.622z" fill="#fff"/></svg>