<svg width="47" height="47" viewBox="0 0 47 47" fill="none" xmlns="http://www.w3.org/2000/svg"><g clip-path="url(#clip0)" fill="#6B5F44"><path d="M42.225 21.478a.93.93 0 0 1-.26-.038c-2.14-.627-4.453-.945-6.87-.945-2.077 0-4.085.236-5.97.7a.915.915 0 0 1-1.109-.661.906.906 0 0 1 .667-1.099c2.03-.5 4.186-.753 6.412-.753 2.593 0 5.079.343 7.39 1.02a.906.906 0 0 1-.26 1.776zm-16.08 11.635a.923.923 0 0 1-.647-.266.877.877 0 0 1-.197-.293.967.967 0 0 1-.07-.347.895.895 0 0 1 .154-.504.879.879 0 0 1 .41-.333.929.929 0 0 1 .7 0 .939.939 0 0 1 .411.333.902.902 0 0 1-.581 1.393.931.931 0 0 1-.18.017z"/><path d="M35.568 6.482c-6.215 0-11.272 5.01-11.272 11.17a111.615 111.615 0 0 0 .532 10.856.912.912 0 0 0 1.002.812.909.909 0 0 0 .819-.993 79.311 79.311 0 0 1-.2-2.279 13.37 13.37 0 0 1 1.559-.708c.223 3.157.588 6.28 1.11 9.513l.506 3.126c.47 2.91 2.97 5.023 5.944 5.023 2.975 0 5.475-2.113 5.945-5.024l.505-3.125c.5-3.104.857-6.101 1.082-9.126.559.26 1.076.549 1.543.864-.233 2.85-.58 5.712-1.033 8.515l-.505 3.126c-.596 3.69-3.766 6.368-7.537 6.368s-6.941-2.678-7.537-6.368l-.37-2.29a.913.913 0 0 0-1.048-.752.908.908 0 0 0-.759 1.039l.37 2.29c.74 4.574 4.669 7.894 9.344 7.894s8.605-3.32 9.343-7.895l.506-3.126a111.854 111.854 0 0 0 1.423-17.74c0-6.16-5.057-11.17-11.272-11.17zm4.643 28.085l-.505 3.125c-.328 2.027-2.068 3.497-4.138 3.497s-3.81-1.47-4.138-3.496l-.505-3.126c-.538-3.33-.906-6.542-1.123-9.797a21.34 21.34 0 0 1 5.293-.649c2.216 0 4.361.326 6.22.916-.218 3.162-.58 6.286-1.104 9.53zm4.58-10.017c-2.565-1.437-6.002-2.242-9.696-2.242-3.262 0-6.32.624-8.78 1.774-.125-2.145-.19-4.302-.19-6.43 0-5.16 4.237-9.357 9.443-9.357 5.206 0 9.442 4.197 9.442 9.356 0 2.284-.074 4.599-.219 6.899zm-24.096 2.081a.9.9 0 0 1-.35-.07.94.94 0 0 1-.412-.333.902.902 0 0 1 .582-1.393.924.924 0 0 1 .826.25.875.875 0 0 1 .198.293.966.966 0 0 1 .07.347.892.892 0 0 1-.154.503.882.882 0 0 1-.41.334.887.887 0 0 1-.35.07z"/><path d="M22.544 11.17C22.544 5.01 17.487 0 11.272 0S0 5.01 0 11.17a111.737 111.737 0 0 0 1.423 17.74l.505 3.125c.739 4.575 4.668 7.895 9.344 7.895 4.675 0 8.605-3.32 9.343-7.894l.37-2.29a.908.908 0 0 0-.758-1.039.914.914 0 0 0-1.048.752l-.37 2.29c-.596 3.69-3.766 6.368-7.537 6.368-3.772 0-6.941-2.678-7.537-6.368l-.505-3.126c-.453-2.803-.8-5.665-1.034-8.515a11.29 11.29 0 0 1 1.543-.863 106.51 106.51 0 0 0 1.083 9.126l.505 3.125c.47 2.91 2.97 5.023 5.945 5.023 2.974 0 5.474-2.112 5.944-5.022l.505-3.127a106.48 106.48 0 0 0 1.111-9.513c.553.211 1.074.448 1.559.709a78.291 78.291 0 0 1-.2 2.279.909.909 0 0 0 .911.997.912.912 0 0 0 .91-.817c.11-1.093.167-1.805.245-2.896.19-2.647.287-5.325.287-7.96zM11.272 1.812c5.206 0 9.442 4.197 9.442 9.356a110 110 0 0 1-.19 6.432c-2.459-1.15-5.517-1.774-8.78-1.774-3.693 0-7.13.805-9.696 2.241a109.99 109.99 0 0 1-.218-6.899c0-5.159 4.235-9.356 9.442-9.356zm4.643 26.271l-.505 3.127c-.328 2.026-2.068 3.496-4.138 3.496s-3.81-1.47-4.138-3.497l-.505-3.125a104.489 104.489 0 0 1-1.105-9.53c1.86-.59 4.005-.915 6.22-.915 1.852 0 3.659.226 5.293.648a104.646 104.646 0 0 1-1.122 9.796z"/><path d="M4.614 14.996a.93.93 0 0 0 .26-.037c2.142-.628 4.453-.945 6.87-.945 2.078 0 4.086.235 5.971.7a.906.906 0 1 0 .441-1.76 26.826 26.826 0 0 0-6.411-.753c-2.593 0-5.08.342-7.39 1.018a.906.906 0 0 0 .26 1.777z"/></g><defs><clipPath id="clip0"><path fill="#fff" d="M0 0h46.84v46.413H0z"/></clipPath></defs></svg>