<svg width="48" height="47" viewBox="0 0 48 47" fill="none" xmlns="http://www.w3.org/2000/svg"><g clip-path="url(#clip0)" fill="#6B5F44"><path d="M45.565 0H13.163a.823.823 0 0 0-.83.816c0 .45.371.816.83.816h31.571V41.61H4.045v-6.854H6.1v4.02c0 .45.372.816.83.816h4.786c.459 0 .83-.365.83-.816a.823.823 0 0 0-.83-.816H7.76v-3.204h.717c.459 0 .83-.365.83-.816v-8.212a.823.823 0 0 0-.83-.817H7.76v-6.58h.717c.459 0 .83-.365.83-.816V9.302a.823.823 0 0 0-.83-.816H7.76V5.282h33.26V9.69c0 .45.371.816.83.816.458 0 .83-.365.83-.816V4.466a.823.823 0 0 0-.83-.816H6.93a.823.823 0 0 0-.83.816v4.02H4.044V1.632h6.223c.458 0 .83-.365.83-.816a.823.823 0 0 0-.83-.816H3.215a.823.823 0 0 0-.83.816v7.67h-.78a.823.823 0 0 0-.831.816v8.213c0 .45.372.816.83.816h.78v6.58h-.78a.823.823 0 0 0-.83.816v8.213c0 .45.372.816.83.816h.78v7.67c0 .45.372.816.83.816h3.35v2.287c0 .45.371.816.83.816h8.73c.459 0 .83-.365.83-.816v-2.287h14.871v2.287c0 .45.372.816.83.816h8.73c.46 0 .831-.365.831-.816v-2.287h3.35c.458 0 .83-.365.83-.816V.816A.824.824 0 0 0 45.565 0zM2.435 16.699v-6.58h5.211v6.58H2.435zm3.664 1.632v6.58H4.045v-6.58H6.1zM2.435 33.124v-6.58h5.211v6.58H2.435zm5.79 11.589v-1.471h7.068v1.47H8.224zm32.33 0h-7.069v-1.471h7.07v1.47z"/><path d="M41.85 11.719a.823.823 0 0 0-.83.816V37.96H14.61a.823.823 0 0 0-.83.816c0 .45.372.816.83.816h27.24c.458 0 .83-.365.83-.816V12.535a.823.823 0 0 0-.83-.816z"/><path d="M24.746 12.673c-5.018 0-9.1 4.01-9.1 8.94 0 4.931 4.082 8.942 9.1 8.942s9.1-4.011 9.1-8.941c0-4.93-4.082-8.941-9.1-8.941zm7.392 8.125h-3.112a4.22 4.22 0 0 0-.667-1.58l2.198-2.16a7.207 7.207 0 0 1 1.58 3.74zm-6.561-6.446a7.473 7.473 0 0 1 3.806 1.552l-2.198 2.16a4.38 4.38 0 0 0-1.608-.655v-3.057zm-1.661 0v3.057a4.38 4.38 0 0 0-1.608.655l-2.198-2.16a7.473 7.473 0 0 1 3.806-1.552zm-4.981 2.706l2.198 2.16a4.22 4.22 0 0 0-.667 1.58h-3.111a7.206 7.206 0 0 1 1.58-3.74zm-1.58 5.372h3.111a4.22 4.22 0 0 0 .667 1.58l-2.198 2.16a7.207 7.207 0 0 1-1.58-3.74zm6.56 6.446a7.474 7.474 0 0 1-3.806-1.553l2.199-2.16a4.38 4.38 0 0 0 1.608.656v3.057zm-1.868-7.262c0-1.462 1.21-2.652 2.699-2.652 1.488 0 2.7 1.19 2.7 2.652 0 1.462-1.212 2.652-2.7 2.652-1.488 0-2.7-1.19-2.7-2.652zm3.53 7.262V25.82a4.382 4.382 0 0 0 1.608-.655l2.198 2.16a7.472 7.472 0 0 1-3.806 1.552zm4.98-2.706l-2.198-2.16c.323-.47.553-1.004.667-1.58h3.112a7.207 7.207 0 0 1-1.58 3.74z"/></g><defs><clipPath id="clip0"><path fill="#fff" d="M0 0h47.169v46.345H0z"/></clipPath></defs></svg>