<svg width="59" height="47" viewBox="0 0 59 47" fill="none" xmlns="http://www.w3.org/2000/svg"><path d="M57.084.542H10.625a.963.963 0 0 0-.967.958c0 .529.433.958.967.958h45.492v33.44H2.394V2.458H7.7a.963.963 0 0 0 .968-.958A.963.963 0 0 0 7.7.542H1.426a.963.963 0 0 0-.968.958v35.356c0 .529.434.957.968.957H18.61v2.642h-2.387c-2.81 0-5.097 2.263-5.097 5.045 0 .529.433.958.968.958h34.323a.963.963 0 0 0 .967-.958c0-2.782-2.286-5.044-5.096-5.044H39.9v-2.643h17.184a.963.963 0 0 0 .968-.957V1.5a.963.963 0 0 0-.968-.958zM20.545 37.814h17.42v2.642h-17.42v-2.642zm21.742 4.557c1.406 0 2.6.913 3.01 2.171H13.213a3.164 3.164 0 0 1 3.01-2.17h26.065z" fill="#6B5F44"/><path d="M53.342 24.323a.963.963 0 0 0 .968-.958V5.204a.963.963 0 0 0-.968-.958H5.168a.963.963 0 0 0-.968.958v27.948c0 .53.434.958.968.958h48.174a.963.963 0 0 0 .968-.958V26.43a.963.963 0 0 0-.968-.958.963.963 0 0 0-.968.958v5.765H6.136V6.16h46.238v17.204c0 .529.434.958.968.958z" fill="#6B5F44"/><path d="M26.46 10.77h-9.463a.963.963 0 0 0-.968.959c0 .528.433.957.968.957h3.85v13.941c0 .53.432.958.967.958a.963.963 0 0 0 .968-.958v-13.94h3.677a.963.963 0 0 0 .968-.958.963.963 0 0 0-.968-.958zm5.886 3.579l-1.11-2.954a.97.97 0 0 0-1.243-.564.955.955 0 0 0-.57 1.231l1.108 2.954a.968.968 0 0 0 1.244.564.955.955 0 0 0 .57-1.231zm9.504-3.519a.97.97 0 0 0-1.244.565l-4.685 12.482-2.682-7.147a.97.97 0 0 0-1.244-.564.955.955 0 0 0-.57 1.231l3.59 9.564c.14.375.502.624.907.624a.968.968 0 0 0 .907-.624l5.592-14.899a.955.955 0 0 0-.57-1.231z" fill="#6B5F44"/></svg>