<svg width="23" height="22" viewBox="0 0 23 22" fill="none" xmlns="http://www.w3.org/2000/svg"><path d="M17.61 0H4.741C2.13 0 0 2.095 0 4.668v12.676C0 19.904 2.129 22 4.742 22h12.88c2.601 0 4.742-2.095 4.742-4.668V4.668C22.352 2.095 20.223 0 17.609 0zm-.521 8.311c0 .117.012.245.012.361 0 3.725-2.886 8.032-8.16 8.032a8.152 8.152 0 0 1-4.388-1.27c.225.024.45.036.686.036a5.828 5.828 0 0 0 3.56-1.21 2.877 2.877 0 0 1-2.685-1.956c.178.035.355.046.532.046.26 0 .509-.035.757-.104-1.312-.257-2.294-1.397-2.294-2.76v-.034c.378.21.828.337 1.3.35A2.811 2.811 0 0 1 5.134 7.45c0-.512.142-1.001.39-1.42a8.168 8.168 0 0 0 5.913 2.945 2.867 2.867 0 0 1-.07-.64c0-1.56 1.276-2.818 2.861-2.818.828 0 1.573.35 2.093.897a5.82 5.82 0 0 0 1.822-.687 2.866 2.866 0 0 1-1.266 1.56 5.9 5.9 0 0 0 1.644-.443 5.87 5.87 0 0 1-1.431 1.467z" fill="#fff"/></svg>