<svg width="50" height="38" viewBox="0 0 50 38" fill="none" xmlns="http://www.w3.org/2000/svg"><path d="M2.746 10.962l.17-.149-.17-.149A5.482 5.482 0 0 1 .854 6.526c0-3.04 2.497-5.518 5.57-5.518h33.36c5.458 0 9.896 4.4 9.896 9.805 0 2.973-1.343 5.642-3.46 7.442l-.246.208.297.125c2.003.838 3.41 2.803 3.41 5.085a5.485 5.485 0 0 1-1.89 4.138l-.17.15.17.148a5.485 5.485 0 0 1 1.89 4.138c0 3.04-2.498 5.518-5.571 5.518H10.75c-5.458 0-9.896-4.4-9.896-9.805 0-2.973 1.343-5.642 3.46-7.442l.246-.208-.297-.124C2.26 19.347.854 17.382.854 15.1c0-1.646.732-3.125 1.892-4.138zm.597 4.138c0 1.687 1.384 3.055 3.082 3.055h33.359c4.083 0 7.407-3.292 7.407-7.342s-3.324-7.342-7.407-7.342H6.424c-1.697 0-3.081 1.369-3.081 3.055 0 1.687 1.384 3.056 3.082 3.056h36.243c.689 0 1.244.553 1.244 1.231 0 .679-.555 1.231-1.244 1.231H6.425c-1.698 0-3.082 1.37-3.082 3.056zm43.848 8.573c0-1.686-1.384-3.055-3.081-3.055H10.75c-4.082 0-7.407 3.292-7.407 7.342s3.325 7.342 7.408 7.342H44.11c1.697 0 3.081-1.368 3.081-3.055s-1.384-3.056-3.081-3.056H7.867c-.69 0-1.245-.552-1.245-1.23 0-.68.556-1.232 1.245-1.232H44.11c1.697 0 3.081-1.369 3.081-3.056z" fill="#6B5F44" stroke="#fff" stroke-width=".395"/></svg>