<svg width="50" height="48" viewBox="0 0 50 48" fill="none" xmlns="http://www.w3.org/2000/svg"><path d="M3.898 47.737h8.71c1.743-.002 3.156-1.4 3.158-3.125v-3.995h30.819c1.56-.002 2.824-1.253 2.825-2.797v-1.095h-.001c0-.151-.035-.3-.103-.436l-3.048-5.999a.965.965 0 0 0-.162-.23V7.064a1.896 1.896 0 0 0-1.903-1.883h-5.507a.975.975 0 0 0-.98.97c0 .536.439.97.98.97h5.45v22.636h-28.37V28H41.53c.541 0 .98-.434.98-.97V9.786a.974.974 0 0 0-.98-.97h-3.934a.975.975 0 0 0-.98.97c0 .535.439.97.98.97h2.954v15.307H15.766v-1.385c-.002-1.668-1.325-3.042-3.009-3.122v-10.8h3.45c.54 0 .98-.435.98-.97a.975.975 0 0 0-.98-.97h-4.43a.974.974 0 0 0-.98.97v11.767H9.172V7.12h5.945c.541 0 .98-.434.98-.97a.975.975 0 0 0-.98-.97H9.115a1.896 1.896 0 0 0-1.903 1.883v14.489H3.898c-1.743.002-3.156 1.4-3.158 3.125v19.935c.002 1.725 1.415 3.123 3.158 3.125zm8.71-1.94h-8.71c-.662 0-1.197-.53-1.198-1.185v-1.724h11.106v1.724c0 .655-.536 1.185-1.198 1.186zm.943-18.507a.97.97 0 0 0 .255.43v13.23H2.7V27.29h10.85zm33.034 11.387h-30.82v-.98h4.29a.978.978 0 0 0 .945-.712l.39-1.398a.866.866 0 0 1 .834-.628h8.86c.389 0 .73.258.834.628l.39 1.398c.117.42.503.712.944.712l14.199-.002v.126a.862.862 0 0 1-.866.856zm-1.806-6.982l2.062 4.06-12.843.002-.191-.685a2.827 2.827 0 0 0-2.723-2.053h-8.86a2.828 2.828 0 0 0-2.724 2.053l-.19.685h-3.544v-4.061h29.013zM3.898 23.491h8.71a1.194 1.194 0 0 1 1.198 1.186v.673H2.7v-.673c0-.654.537-1.185 1.198-1.186z" fill="#6B5F44"/><path d="M9.478 43.373h-2.45a.975.975 0 0 0-.98.97c0 .535.439.97.98.97h2.45c.54 0 .98-.435.98-.97a.975.975 0 0 0-.98-.97zM36.236 5.742a.963.963 0 0 0-.03-1.371C33.69 1.993 30.304.7 26.67.74c-3.61.036-6.99 1.372-9.514 3.76a.965.965 0 0 0 .398 1.64.986.986 0 0 0 .956-.237c2.164-2.048 5.069-3.192 8.18-3.223l.13-.001c3.071 0 5.919 1.096 8.03 3.094a.987.987 0 0 0 1.386-.03z" fill="#6B5F44"/><path d="M33.075 8.727a.962.962 0 0 0-.026-1.371 8.953 8.953 0 0 0-6.223-2.45c-.051 0-.102 0-.153.002a9.44 9.44 0 0 0-6.359 2.575.965.965 0 0 0 .4 1.637.988.988 0 0 0 .955-.234c2.81-2.66 7.306-2.72 10.02-.133a.986.986 0 0 0 1.386-.026z" fill="#6B5F44"/><path d="M30.078 11.577a.963.963 0 0 0-.03-1.372c-1.813-1.714-4.824-1.656-6.712.13a.963.963 0 0 0-.031 1.372.988.988 0 0 0 1.386.031c1.12-1.061 2.955-1.12 4.002-.13a.988.988 0 0 0 1.385-.031zm-3.398 1.414c-1.32 0-2.39 1.06-2.39 2.365 0 1.306 1.07 2.365 2.39 2.365s2.39-1.06 2.39-2.365c-.002-1.305-1.07-2.363-2.39-2.365zm0 2.79a.427.427 0 0 1-.43-.425c0-.235.193-.425.43-.425s.43.19.43.425a.428.428 0 0 1-.43.425z" fill="#6B5F44"/></svg>