<svg width="46" height="45" viewBox="0 0 46 45" fill="none" xmlns="http://www.w3.org/2000/svg"><g clip-path="url(#clip0)" fill="#6B5F44"><path d="M40.477 10.793a1.737 1.737 0 0 1-.738-1.415V.873A.88.88 0 0 0 38.85 0H34.3a.88.88 0 0 0-.89.873v8.505c0 .56-.275 1.088-.738 1.415-3.135 2.211-5.007 5.796-5.007 9.588v1.038a21.824 21.824 0 0 0-.492-1.078 20.584 20.584 0 0 1-2.092-9.007v-9.53C25.081.809 24.257 0 23.245 0h-3.553c-1.012 0-1.836.81-1.836 1.804v9.537c0 3.095-.721 6.206-2.088 9l-.003.006c-.172.35-.332.705-.485 1.064V18.14c0-3.094-1.756-5.907-4.52-7.32V.873A.88.88 0 0 0 9.872 0H5.408a.88.88 0 0 0-.888.873v9.947C1.756 12.232 0 15.046 0 18.14v25.677a.88.88 0 0 0 .888.873h13.504c.234 0 .446-.09.605-.236.33.151.696.236 1.082.236h10.786c.525 0 1.014-.156 1.422-.422.31.262.713.422 1.155.422h14.266c.98 0 1.777-.783 1.777-1.746V20.381c0-3.792-1.872-7.377-5.008-9.588zm-5.29-2.065V5.081h2.775v3.647h-2.775zm2.775-6.982v1.59h-2.775v-1.59h2.775zM19.633 11.34V5.944h3.671v5.39c0 1.156.095 2.312.277 3.457h-4.223c.18-1.142.275-2.296.275-3.448zm0-9.537a.06.06 0 0 1 .06-.058h3.552a.06.06 0 0 1 .06.058v2.393h-3.672V1.804zm-10.65-.058v5.636H6.297V1.746h2.688zM5.763 12.17a.872.872 0 0 0 .534-.8V9.128h2.688v2.242c0 .347.21.662.534.8 2.42 1.034 3.985 3.377 3.985 5.97v3.332H7.107a.88.88 0 0 0-.888.873.88.88 0 0 0 .888.873h6.396v12.727H1.777V18.14c0-2.594 1.564-4.937 3.985-5.97zm7.741 30.774H1.777v-5.253h11.726v5.253zm13.362 0H16.08a.793.793 0 0 1-.8-.786v-12.06c0-3.095.721-6.206 2.089-9l.003-.006a22.263 22.263 0 0 0 1.637-4.557h4.92c.382 1.575.93 3.11 1.644 4.563a20.581 20.581 0 0 1 2.092 9.007v12.053a.793.793 0 0 1-.8.786zm16.843 0H29.442V20.381c0-3.231 1.594-6.286 4.266-8.17a3.497 3.497 0 0 0 1.297-1.737h3.14a3.5 3.5 0 0 0 1.296 1.737c2.672 1.884 4.267 4.939 4.267 8.17v22.563z"/><path d="M3.858 23.218a.904.904 0 0 0 .628-.256.872.872 0 0 0 .26-.617.872.872 0 0 0-.26-.617.904.904 0 0 0-1.256 0 .872.872 0 0 0-.26.617c0 .23.095.455.26.617a.904.904 0 0 0 .628.256zm3.782 9.649c1.844 0 3.343-1.474 3.343-3.285 0-1.812-1.5-3.285-3.343-3.285-1.844 0-3.344 1.473-3.344 3.285 0 1.81 1.5 3.285 3.344 3.285zm0-4.825c.864 0 1.567.69 1.567 1.54 0 .848-.703 1.539-1.567 1.539s-1.567-.69-1.567-1.54c0-.848.703-1.539 1.567-1.539zm33.227.413a.904.904 0 0 0-.628.256.87.87 0 0 0-.26.617c0 .23.094.454.26.617a.903.903 0 0 0 1.256 0 .872.872 0 0 0 .26-.617.872.872 0 0 0-.26-.617.903.903 0 0 0-.628-.256z"/><path d="M31.394 23.218v12.22a.88.88 0 0 0 .889.872h8.584a.88.88 0 0 0 .888-.873v-2.88a.88.88 0 0 0-.888-.873.88.88 0 0 0-.889.873v2.008h-6.807V24.09h6.807v1.579a.88.88 0 0 0 .889.873.88.88 0 0 0 .888-.873v-2.452a.88.88 0 0 0-.888-.873h-8.584a.88.88 0 0 0-.889.873zm-6.398 5.935h-7.047a.88.88 0 0 0-.888.873v9.077a.88.88 0 0 0 .888.873h7.047a.88.88 0 0 0 .888-.873v-9.077a.88.88 0 0 0-.888-.873zm-.888 9.078h-5.27v-7.332h5.27v7.332z"/></g><defs><clipPath id="clip0"><path fill="#fff" d="M0 0h45.485v44.69H0z"/></clipPath></defs></svg>