<svg width="52" height="52" viewBox="0 0 52 52" fill="none" xmlns="http://www.w3.org/2000/svg">
<path d="M37.1033 1.80591C36.8697 1.30365 36.4345 0.914459 35.9096 0.738312L34.0108 0.0999756C33.8137 0.0337219 33.6086 0.000396729 33.4015 0.000396729C32.8449 0.000396729 32.3343 0.237244 31.98 0.634369C30.935 0.428467 28.5102 0 26.4186 0C24.3279 0 21.9031 0.428467 20.8577 0.634369C20.5034 0.237244 19.9932 0 19.4366 0C19.2299 0 19.0252 0.0333252 18.828 0.0995789L16.9289 0.737915C16.404 0.914062 15.9688 1.30286 15.7351 1.80511C15.6522 1.98364 15.5979 2.17249 15.5697 2.3645C15.4269 2.37204 15.2888 2.41766 15.1714 2.50018C13.7464 3.50232 12.4602 4.67584 11.212 5.88705C5.44203 11.4738 3.18782 27.0382 2.76411 30.3727C2.07619 30.5779 1.5414 31.1714 1.43944 31.912L1.13515 34.1171C0.993912 35.1406 1.71159 36.0884 2.73515 36.2296L10.5662 37.3103C11.5747 37.4492 12.5395 36.7192 12.6788 35.7099C12.6788 35.7099 12.9826 33.5061 12.983 33.5049C13.083 32.7797 12.7379 32.0465 12.1174 31.6593C12.3705 29.9348 13.1786 24.7555 14.3391 20.5466C14.8877 21.92 15.7292 23.7581 16.8789 25.5457V29.5761C16.4501 30.5374 14.151 35.8226 12.7244 41.8029C12.6268 42.2119 12.8795 42.6229 13.2885 42.7205C13.6976 42.8181 14.1086 42.5654 14.2062 42.1564C15.4924 36.7656 17.5038 31.9505 18.1362 30.5013H20.8462V50.4766C20.8462 50.4766 13.769 50.4766 13.7305 50.4766C13.3603 50.4766 13.0652 50.1647 13.0779 49.7993C13.1263 48.3771 13.2969 46.8148 13.5845 45.1564C13.6567 44.7422 13.379 44.3479 12.9644 44.2757C12.5498 44.2043 12.1555 44.4816 12.0837 44.8962C11.7837 46.6231 11.606 48.2553 11.5552 49.7474C11.514 50.963 12.5141 52 13.7301 52H38.3221C39.5396 52 40.539 50.963 40.497 49.7474C40.1998 41.0257 35.8068 30.9817 35.1729 29.5745V25.5461C36.3226 23.7581 37.1644 21.92 37.7127 20.547C38.8727 24.7547 39.6813 29.9348 39.9344 31.6597C39.7432 31.7791 39.5722 31.9323 39.4317 32.1176C39.1294 32.5167 39.0005 33.0094 39.0691 33.5053C39.0691 33.5053 39.373 35.7079 39.3734 35.7099C39.5119 36.7125 40.4847 37.4484 41.486 37.3103L49.3166 36.2296C50.3406 36.0884 51.0583 35.1406 50.917 34.1171L50.6127 31.912C50.5104 31.171 49.9752 30.5775 49.2865 30.3723C49.146 29.2845 48.8025 26.845 48.2074 23.8981C47.1227 18.5292 45.7651 14.1283 44.1715 10.8176C43.989 10.4383 43.5335 10.2788 43.1546 10.4613C42.7758 10.6438 42.6163 11.0989 42.7988 11.4781C45.9452 18.0154 47.3949 27.6913 47.7551 30.4148L41.4209 31.2888C41.0901 29.0374 40.0264 22.3326 38.4851 17.8742C38.3768 17.5608 38.0793 17.3537 37.7468 17.3616C37.4152 17.37 37.1271 17.5913 37.0339 17.9099C37.0236 17.9452 36.0131 21.3603 33.9958 24.5603H26.7872V22.3592C26.8856 22.2787 26.9828 22.1974 27.0792 22.116C30.3816 19.3207 32.4799 16.0009 33.9025 12.881C34.9316 10.6256 35.6759 8.26584 36.3654 5.88864C36.5142 5.37448 36.6626 4.85992 36.8232 4.34933C38.017 5.26816 38.9077 6.13382 39.5908 6.79794C40.2292 7.41803 40.7965 8.08691 41.296 8.82443C41.532 9.17276 42.0057 9.26361 42.354 9.02756C42.7024 8.7915 42.7932 8.31821 42.5572 7.96988C42.0002 7.14746 41.365 6.39685 40.6529 5.70535C39.9003 4.97418 38.793 3.89905 37.2866 2.79257C37.3084 2.45654 37.2474 2.11575 37.1033 1.80591ZM40.6469 33.038C40.7013 32.9662 40.7826 32.915 40.8774 32.9019L48.7084 31.8212C48.8973 31.795 49.0774 31.9311 49.1036 32.1203L49.4079 34.3253C49.4341 34.5166 49.3 34.6939 49.1083 34.7205L41.2773 35.8012C41.0853 35.8282 40.9084 35.6905 40.8826 35.502C40.8826 35.502 40.5783 33.297 40.5783 33.2966C40.5652 33.2014 40.5926 33.1098 40.6469 33.038ZM26.4186 1.52344C28.1539 1.52344 30.205 1.85312 31.3294 2.0618C31.3063 2.1344 31.2837 2.20898 31.2607 2.28436C30.693 4.14819 30.2189 6.03583 29.5445 7.86633C28.734 10.0678 27.71 12.1935 26.3484 14.1104C25.0257 12.3375 24.0264 10.3395 23.2746 8.26346C22.57 6.31949 22.1348 4.30728 21.5746 2.32126C21.55 2.23358 21.5254 2.14709 21.5004 2.06339C22.6228 1.85471 24.6794 1.52344 26.4186 1.52344ZM17.1221 2.45059C17.1784 2.3284 17.2808 2.22684 17.4141 2.18201C17.4141 2.18201 19.3065 1.54605 19.3132 1.54407C19.6394 1.43417 19.7901 1.74045 19.8778 1.99039C20.4515 3.62253 20.7506 5.33521 21.2489 6.98996C21.8912 9.12436 22.7287 11.2131 23.8677 13.1329C23.9867 13.3336 25.4054 15.3391 25.3864 15.3621C25.2372 15.5426 23.3781 17.533 23.3345 17.4791C22.1415 15.9953 21.1485 14.3564 20.3412 12.6334C20.3384 12.6275 20.336 12.6215 20.3328 12.6156C19.6267 11.1052 19.0613 9.5322 18.5849 7.93536C18.5833 7.92902 18.5813 7.92307 18.5793 7.91672C18.0758 6.23578 17.7497 4.47946 17.1047 2.84415C17.0543 2.71719 17.065 2.57358 17.1221 2.45059ZM11.4739 33.297L11.1696 35.502C11.1434 35.6905 10.9665 35.8274 10.7745 35.8012L2.94344 34.7205C2.75221 34.6939 2.61772 34.517 2.6443 34.3253C2.6443 34.3253 2.9478 32.1247 2.94859 32.1203C2.97478 31.9315 3.15568 31.795 3.34373 31.8212C3.34373 31.8212 11.1744 32.9019 11.1748 32.9019C11.3648 32.9281 11.5001 33.1074 11.4739 33.297ZM18.0564 24.5603C16.039 21.3603 15.0286 17.9448 15.0183 17.9099C14.9254 17.5917 14.637 17.3696 14.3057 17.3616C13.9717 17.3513 13.6753 17.5608 13.567 17.8742C12.0257 22.3326 10.9621 29.0374 10.6312 31.2888L4.29747 30.4148C4.75966 26.9307 7.00752 12.0788 12.2717 6.98123C13.4075 5.87912 14.5648 4.81033 15.8526 3.88516H15.8601C15.8617 3.89072 15.8637 3.89627 15.8657 3.90182C16.2612 5.11502 16.5465 6.36194 16.8972 7.58823C16.8988 7.59378 16.9003 7.59933 16.9015 7.60489C17.6755 10.357 18.6947 13.0218 20.1261 15.5026C20.1265 15.5038 20.1273 15.5049 20.1281 15.5061C20.7268 16.5241 21.3973 17.5021 22.1372 18.4229C21.9376 18.6173 21.7079 18.7914 21.531 19.0069C21.0965 19.5373 20.8462 20.2177 20.8462 20.9044V24.5603H18.0564ZM25.2638 50.4766H22.3696V30.5013H25.2638V50.4766ZM38.9743 49.7997C38.9866 50.1639 38.6847 50.4766 38.3221 50.4766H26.7872V30.5013H33.9156C34.8392 32.621 38.7061 41.9346 38.9743 49.7997ZM33.6494 26.0837V28.9778H18.4028V26.0837H33.6494ZM35.7334 2.84375C35.4942 3.45114 35.2617 4.22873 35.0011 5.12375C33.6443 9.78452 32.0129 14.3465 28.8736 18.1384C27.8822 19.3358 26.7698 20.4319 25.5518 21.3983C25.3701 21.5432 25.2638 21.7625 25.2638 21.995V24.5603H22.3696V20.9044C22.3696 20.4494 22.5926 20.0094 22.9584 19.7396C29.2061 15.1332 31.16 8.21307 32.3275 4.07837C32.5941 3.13495 32.8242 2.31967 33.044 1.76624C33.119 1.57739 33.3336 1.4798 33.5252 1.54407C33.5252 1.54407 35.4208 2.18121 35.4244 2.1824C35.6938 2.27286 35.8386 2.57834 35.7334 2.84375Z" fill="#6B5F44"/>
</svg>
