<svg width="21" height="21" viewBox="0 0 21 21" fill="none" xmlns="http://www.w3.org/2000/svg">
<path d="M10.5 0C4.71032 0 0 4.71032 0 10.5C0 16.2893 4.71032 21 10.5 21C16.2893 21 21 16.2893 21 10.5C21 4.71032 16.2901 0 10.5 0ZM13.1113 10.8697H11.403C11.403 13.5989 11.403 16.9584 11.403 16.9584H8.87167C8.87167 16.9584 8.87167 13.6315 8.87167 10.8697H7.66839V8.71771H8.87167V7.32581C8.87167 6.32893 9.34536 4.77123 11.4262 4.77123L13.302 4.77842V6.86734C13.302 6.86734 12.1622 6.86734 11.9405 6.86734C11.7189 6.86734 11.4038 6.97815 11.4038 7.45354V8.71814H13.3325L13.1113 10.8697Z" fill="#FFE800"/>
</svg>
