<svg width="48" height="44" viewBox="0 0 48 44" fill="none" xmlns="http://www.w3.org/2000/svg">
<path d="M46.8581 1.43764C46.6608 1.27471 46.4 1.20547 46.1461 1.2491L38.1684 2.61346L20.2998 1.11549C19.8202 1.07476 19.3961 1.42542 19.3552 1.89765C19.3141 2.36997 19.6707 2.78544 20.1513 2.82572L37.3331 4.26613V19.7992L12.6488 21.8676C12.3531 21.8921 12.06 21.9045 11.7777 21.9045C11.2634 21.9045 10.7451 21.8651 10.237 21.7876C8.32406 21.4954 6.54646 20.6658 5.09527 19.3878C2.96768 17.5191 1.74718 14.8381 1.74718 12.0321C1.74718 9.22602 2.96768 6.54499 5.0962 4.67572C7.17864 2.8431 9.86065 1.96273 12.6482 2.19654L17.4401 2.59835C17.9204 2.63844 18.3437 2.28841 18.3846 1.81619C18.4257 1.34387 18.0692 0.928393 17.5886 0.888112L12.7968 0.486306C9.52365 0.211768 6.37548 1.24538 3.93115 3.39653C1.43293 5.59066 7.62939e-05 8.73813 7.62939e-05 12.0322C7.62939e-05 15.3263 1.43293 18.4739 3.93032 20.6671C5.46369 22.0176 7.31038 22.9402 9.3043 23.3615L11.2261 40.8011C11.42 42.5689 12.931 43.9019 14.7409 43.9019H20.0417C21.044 43.9019 22.003 43.4817 22.6726 42.7488C23.3427 42.0156 23.6652 41.033 23.5576 40.0524L22.9733 34.7522C22.9214 34.281 22.4902 33.9396 22.0108 33.9914C21.5312 34.0424 21.1844 34.4658 21.2365 34.9371L21.8205 40.237C21.876 40.7407 21.7168 41.2254 21.3726 41.602C21.0289 41.9782 20.5563 42.1853 20.0417 42.1853H14.7408C13.8254 42.1853 13.0612 41.5112 12.963 40.6168L11.0876 23.5992C11.3177 23.6126 11.5481 23.6213 11.7777 23.6213C12.109 23.6213 12.4514 23.6068 12.7967 23.5782L19.9184 22.9814L20.8374 31.3192C20.8859 31.7591 21.2646 32.0851 21.7048 32.0851C21.7362 32.0851 21.7679 32.0835 21.7999 32.0801C22.2795 32.029 22.6263 31.6056 22.5742 31.1344L21.6594 22.8355L38.1682 21.4523L46.1459 22.8167C46.1957 22.8253 46.2458 22.8294 46.2957 22.8294C46.4997 22.8294 46.6993 22.759 46.8579 22.628C47.0552 22.4649 47.1692 22.2245 47.1692 21.9711V2.09453C47.1693 1.84108 47.0554 1.60066 46.8581 1.43764ZM45.4222 20.9505L39.0802 19.8658V4.19978L45.4222 3.11502V20.9505Z" fill="#6B5F44"/>
<path d="M18.7135 30.5794L18.3202 27.6398C18.2501 27.106 17.9847 26.6153 17.5687 26.2553C17.1554 25.9014 16.6269 25.7065 16.0803 25.7065C15.4304 25.7065 14.8115 25.9818 14.3827 26.4618C13.9534 26.9422 13.7555 27.5813 13.84 28.2158L14.2336 31.1571C14.3813 32.2578 15.3439 33.0876 16.473 33.0876C17.1241 33.0876 17.7437 32.8118 18.1729 32.3308C18.6015 31.8506 18.7984 31.212 18.7135 30.5794ZM16.8589 31.1992C16.8017 31.2634 16.6754 31.371 16.4728 31.371C16.2172 31.371 15.9992 31.1827 15.9656 30.9329L15.5721 27.9927C15.5459 27.7955 15.6382 27.6584 15.6956 27.5942C15.7527 27.5302 15.8787 27.4229 16.0803 27.4229C16.2398 27.4229 16.3535 27.4916 16.4173 27.5462C16.5112 27.6274 16.5715 27.7383 16.5876 27.861L16.9813 30.8035C17.0076 30.9992 16.9159 31.1354 16.8589 31.1992Z" fill="#6B5F44"/>
</svg>
