<svg width="70" height="66" viewBox="0 0 70 66" fill="none" xmlns="http://www.w3.org/2000/svg">
<path d="M42 51L57 59" stroke="white" stroke-width="2"/>
<path d="M4.61621 65H64.2197" stroke="white" stroke-width="2"/>
<path d="M56.5116 65V57.5441M56.5116 26L68 52.0956L56.5116 57.5441M56.5116 26V46.9338M56.5116 26L47.1395 43.4926M56.5116 57.5441V46.9338M42 52.0956L47.1395 43.4926M47.1395 43.4926L56.5116 46.9338" stroke="white" stroke-width="2"/>
<path d="M22.9339 53.3395L2 43.9541L22.6432 3.28442L40.9604 43.9541L22.9339 53.3395Z" stroke="white" stroke-width="2"/>
<path d="M22.9337 65V42.7364M22.9337 42.7364L6.07031 35.9727L10.6434 27.2364L22.9337 32.5909M22.9337 42.7364V32.5909M22.9337 32.5909V24.4182M22.9337 24.4182V3L14.0733 20.4727L22.9337 24.4182Z" stroke="white" stroke-width="2"/>
<path d="M12.6261 54.1929L4.61621 64.4314H64.2197L48.4965 60.5574H42.8639L35.1562 56.1299L25.9663 59.4505L12.6261 54.1929Z" fill="white"/>
</svg>
