<svg width="60" height="60" viewBox="0 0 60 60" fill="none" xmlns="http://www.w3.org/2000/svg">
<path d="M58.9974 51.9747L35.3614 21.2994L35.4627 21.198C36.6315 20.0255 36.6315 18.1285 35.4627 16.956L31.1694 12.6631C30.3281 11.8609 29.1059 11.6028 28.0121 11.9963C27.2256 6.73776 23.5437 2.37105 18.4937 0.707346C13.4438 -0.956359 7.88733 0.366848 4.12932 4.12814C-1.36505 9.63481 -1.36505 18.5497 4.12932 24.0564C6.25292 26.1842 9.00642 27.5699 11.9806 28.0074C11.5722 29.1041 11.8396 30.3383 12.6652 31.1676L16.9576 35.4604C18.1299 36.6301 20.0278 36.6301 21.2001 35.4604L21.3008 35.3597L52.0052 59.018C52.8491 59.6455 53.8702 59.9893 54.9218 59.9998C56.2625 59.9812 57.5421 59.4358 58.4838 58.4815C60.2804 56.7568 60.5011 53.9601 58.9974 51.9747ZM5.54321 22.6426C0.82909 17.9171 0.82909 10.2675 5.54321 5.54204C8.91269 2.16108 13.9578 1.08299 18.4149 2.79158C22.8719 4.50016 25.9035 8.67459 26.1494 13.4414L13.4436 26.1473C10.4657 26.0031 7.64865 24.7534 5.54321 22.6426ZM20.5078 33.3247L20.5068 33.3261L19.7862 34.0468C19.3951 34.4364 18.7625 34.4364 18.3714 34.0468L14.079 29.7539C13.6894 29.3629 13.6894 28.7306 14.079 28.3396L28.3426 14.0765C28.53 13.8892 28.7841 13.7839 29.0492 13.784C29.3141 13.7842 29.5682 13.8895 29.7555 14.077L34.0479 18.3694C34.4382 18.76 34.4386 19.393 34.0489 19.7842L33.3263 20.5068L20.5078 33.3247ZM57.0815 57.0551C56.0458 58.1034 54.4059 58.2543 53.1964 57.4125L22.7265 33.9341L33.9355 22.7251L57.3921 53.166C58.2484 54.3654 58.1173 56.0069 57.0815 57.0551Z" fill="white"/>
<path d="M34.739 30.4754C33.5459 29.3379 31.6699 29.3379 30.4769 30.4754C29.3 31.6528 29.3 33.5611 30.4769 34.7384L31.8996 36.1611L31.9005 36.1625L31.902 36.1636L33.3252 37.5867C34.5022 38.7637 36.4103 38.7637 37.5873 37.5867C38.7642 36.4098 38.7642 34.5016 37.5873 33.3247L34.739 30.4754ZM32.6076 34.0415L31.8908 33.3247C31.495 32.9283 31.495 32.2862 31.8908 31.8898C32.2871 31.494 32.9289 31.494 33.3252 31.8898L34.042 32.6069L32.6076 34.0415ZM36.1734 36.1724C35.7719 36.5553 35.1406 36.5555 34.739 36.1728L34.0215 35.4554L35.4557 34.021L36.1734 34.739C36.5691 35.1348 36.5691 35.7766 36.1734 36.1724Z" fill="white"/>
<path d="M9.11303 4.84011L8.40122 5.55251C8.1486 5.80513 8.05006 6.17316 8.1425 6.51823C8.23495 6.86318 8.50444 7.13267 8.84939 7.22512C9.19446 7.31757 9.56249 7.21891 9.81511 6.96641L10.5269 6.25413C10.7145 6.06654 10.8199 5.81216 10.8199 5.547C10.8199 5.28185 10.7145 5.02735 10.5269 4.83988C10.1362 4.4497 9.50344 4.44994 9.11303 4.84011Z" fill="white"/>
<path d="M19.3311 5.2881C19.2387 4.94315 18.9692 4.67365 18.6242 4.58121C18.2793 4.48876 17.9111 4.58742 17.6585 4.83992L16.9467 5.5522C16.6606 5.8381 16.5749 6.26823 16.7297 6.64189C16.8845 7.01554 17.2491 7.25914 17.6536 7.25902L17.6537 7.25914C17.919 7.25949 18.1733 7.15404 18.3606 6.96621L19.0724 6.25393C19.3249 6.0012 19.4235 5.63316 19.3311 5.2881Z" fill="white"/>
<path d="M15.4388 8.33646C15.2066 8.14699 14.9021 8.07083 14.6081 8.12895C14.5424 8.13949 14.4785 8.15976 14.4187 8.18905C14.3572 8.20874 14.2996 8.23909 14.2488 8.27892C14.1963 8.31595 14.1461 8.35602 14.0984 8.39902C14.0028 8.49241 13.928 8.60478 13.8787 8.72909C13.8306 8.8499 13.8067 8.9789 13.8084 9.10896C13.808 9.37447 13.9121 9.62955 14.0984 9.8189C14.1482 9.85885 14.199 9.89892 14.2488 9.93899C14.2996 9.97872 14.3572 10.0092 14.4187 10.0289C14.4787 10.0579 14.5424 10.0781 14.6081 10.0889C14.6743 10.1003 14.7411 10.107 14.8083 10.1089C15.1433 10.1088 15.4554 9.93946 15.6382 9.65872C15.6744 9.60565 15.7045 9.54858 15.728 9.48883C15.7541 9.42755 15.7743 9.36392 15.7886 9.29889C15.8 9.23621 15.8064 9.1727 15.8082 9.10896C15.8063 8.80912 15.6709 8.52592 15.4388 8.33646Z" fill="white"/>
<path d="M21.2087 8.39029C21.4612 8.13779 21.5598 7.76964 21.4674 7.42457C21.3749 7.07962 21.1054 6.81013 20.7605 6.71768C20.4155 6.62523 20.0474 6.72389 19.7948 6.97639L19.083 7.68867C18.8954 7.87626 18.79 8.13064 18.79 8.39592C18.79 8.66119 18.8954 8.91557 19.083 9.10304C19.4736 9.4931 20.1065 9.49287 20.4967 9.10257L21.2087 8.39029Z" fill="white"/>
<path d="M17.6479 10.5388C17.6007 10.4925 17.5507 10.4489 17.4985 10.4085C17.4379 10.3788 17.3881 10.3484 17.3178 10.3186C17.2583 10.2986 17.1986 10.2787 17.1382 10.2587C16.8107 10.2001 16.4751 10.3046 16.2389 10.5389C16.142 10.6274 16.0665 10.7367 16.0183 10.8587C15.9671 10.9789 15.9398 11.1079 15.9382 11.2386C15.947 11.7888 16.3879 12.2343 16.9381 12.2487C17.2053 12.2477 17.4611 12.1396 17.648 11.9485C17.8342 11.7591 17.9383 11.5042 17.938 11.2386C17.9368 11.1079 17.9096 10.9788 17.858 10.8587C17.8098 10.7391 17.7384 10.6303 17.6479 10.5388Z" fill="white"/>
<path d="M14.8055 5.83493C15.0708 5.83529 15.3252 5.72983 15.5124 5.54201L16.2243 4.82973C16.4794 4.57769 16.5801 4.20826 16.4879 3.86167C16.3958 3.51507 16.125 3.24429 15.7784 3.1522C15.4318 3.0601 15.0624 3.16075 14.8104 3.41583L14.0985 4.12811C13.8124 4.41401 13.7268 4.84414 13.8815 5.2178C14.0364 5.59145 14.4011 5.83505 14.8055 5.83493Z" fill="white"/>
<path d="M22.6317 9.82707C22.2422 9.43736 21.6109 9.43607 21.2199 9.82414L20.5072 10.5364C20.1203 10.9275 20.1218 11.5576 20.5107 11.9467C20.8996 12.3358 21.5297 12.3378 21.921 11.9511L22.6337 11.2389C23.0221 10.8481 23.0212 10.2168 22.6317 9.82707Z" fill="white"/>
</svg>
