<svg width="64" height="64" viewBox="0 0 64 64" fill="none" xmlns="http://www.w3.org/2000/svg">
<path d="M27.8386 37.2393V50.4473H21.6618V14.9004H35.2604C39.2318 14.9004 42.3812 15.9339 44.7087 18.001C47.0524 20.068 48.2243 22.8024 48.2243 26.2041C48.2243 29.6872 47.0768 32.3971 44.7819 34.334C42.5033 36.2708 39.305 37.2393 35.1872 37.2393H27.8386ZM27.8386 32.2832H35.2604C37.4577 32.2832 39.1341 31.7705 40.2897 30.7451C41.4453 29.7035 42.0231 28.2061 42.0231 26.2529C42.0231 24.3324 41.4372 22.8024 40.2653 21.6631C39.0934 20.5075 37.4821 19.9134 35.4313 19.8809H27.8386V32.2832Z" fill="white"/>
<circle cx="32" cy="32" r="30.5" stroke="white" stroke-width="3"/>
</svg>
