<svg width="75" height="75" viewBox="0 0 75 75" fill="none" xmlns="http://www.w3.org/2000/svg">
<path d="M65.1289 16.7695C64.7598 17.1797 64.2197 17.5101 63.5088 17.7607C62.7979 18.0114 62.0186 18.1367 61.1709 18.1367C59.8675 18.1367 58.8262 17.738 58.0469 16.9404C57.2676 16.1429 56.8506 15.0332 56.7959 13.6113L56.7891 12.75C56.7891 11.7702 56.9622 10.9157 57.3086 10.1865C57.6549 9.4528 58.1494 8.88997 58.792 8.49805C59.4391 8.10156 60.1865 7.90332 61.0342 7.90332C62.2738 7.90332 63.2354 8.18815 63.9189 8.75781C64.6071 9.32292 65.0081 10.1683 65.1221 11.2939H62.8115C62.7295 10.738 62.5518 10.3415 62.2783 10.1045C62.0049 9.86751 61.6175 9.74902 61.1162 9.74902C60.5146 9.74902 60.0498 10.0042 59.7217 10.5146C59.3936 11.0251 59.2272 11.7542 59.2227 12.7021V13.3037C59.2227 14.2972 59.3913 15.0446 59.7285 15.5459C60.0703 16.0426 60.6058 16.291 61.335 16.291C61.9593 16.291 62.4242 16.152 62.7295 15.874V14.3291H61.0615V12.6816H65.1289V16.7695Z" fill="white"/>
<path d="M58.75 36.2505H51.2501C49.8693 36.2505 48.75 37.3698 48.75 38.7506V46.2507C48.75 47.6315 49.8693 48.7508 51.2501 48.7508H65.0001C65.4545 48.7508 65.8731 48.5042 66.0935 48.1067C66.3138 47.7093 66.301 47.2235 66.0602 46.8383L59.8102 36.838C59.5816 36.4724 59.181 36.2505 58.75 36.2505ZM51.2501 46.2505V38.7504H58.0576L62.7451 46.2505H51.2501Z" fill="white"/>
<path d="M30 48.7508H40.0001C41.3809 48.7508 42.5001 47.6315 42.5001 46.2507V38.7506C42.5001 37.3698 41.3809 36.2505 40.0001 36.2505H30C28.6193 36.2505 27.5 37.3698 27.5 38.7506V46.2507C27.5 47.6315 28.6193 48.7508 30 48.7508ZM30 38.7506H40.0001V46.2507H30V38.7506Z" fill="white"/>
<path d="M20 36.2505H10C8.61929 36.2505 7.5 37.3698 7.5 38.7506V46.2507C7.5 47.6315 8.61929 48.7508 10 48.7508H20.0001C21.3809 48.7508 22.5001 47.6315 22.5001 46.2507V38.7506C22.5 37.3698 21.3807 36.2505 20 36.2505ZM20 46.2505H10V38.7504H20.0001V46.2505H20Z" fill="white"/>
<path d="M16.2499 52.5007H13.75C13.0596 52.5007 12.5 53.0603 12.5 53.7507C12.5 54.4411 13.0597 55.0007 13.75 55.0007H16.25C16.9404 55.0007 17.5 54.4411 17.5 53.7507C17.5 53.0603 16.9402 52.5007 16.2499 52.5007Z" fill="white"/>
<path d="M33.7499 52.5007C33.0596 52.5007 32.5 53.0603 32.5 53.7507C32.5 54.4411 33.0596 55.0007 33.7499 55.0007H36.25C36.9404 55.0007 37.5 54.4411 37.5 53.7507C37.5 53.0603 36.9404 52.5007 36.25 52.5007H33.7499Z" fill="white"/>
<path d="M56.25 52.5007H53.75C53.0596 52.5007 52.5 53.0603 52.5 53.7507C52.5 54.4411 53.0596 55.0007 53.75 55.0007H56.25C56.9404 55.0007 57.5 54.4411 57.5 53.7507C57.5 53.0603 56.9404 52.5007 56.25 52.5007Z" fill="white"/>
<path d="M71.25 27.5004C73.321 27.5004 75 25.8215 75 23.7503V3.75006C75 1.67903 73.3211 0 71.25 0H51.25C49.1791 0 47.5 1.67888 47.5 3.75006V23.7503C47.5 25.8214 49.1791 27.5004 51.25 27.5004H60V31.2679C59.9537 31.2679 59.9112 31.2504 59.8649 31.2504H3.75C1.679 31.2504 0 32.9293 0 35.0005V65.001C0 67.072 1.67886 68.751 3.75 68.751H7.6125C8.21909 72.3583 11.3421 75 15 75C18.6579 75 21.7808 72.3583 22.3875 68.751H51.3625C51.9691 72.3583 55.0922 75 58.75 75C62.4079 75 65.531 72.3583 66.1376 68.751H71.25C73.321 68.751 75 67.072 75 65.001V53.2183C75 52.5155 74.8025 51.8268 74.43 51.2308L63.045 33.013C62.8893 32.7708 62.7064 32.5473 62.4999 32.3467V27.5004H71.25ZM15 72.5011C12.2386 72.5011 10 70.2625 10 67.5011C10 64.7396 12.2386 62.501 15 62.501C17.7614 62.501 20 64.7396 20 67.5011C20 70.2625 17.7614 72.5011 15 72.5011ZM58.75 72.5011C55.9887 72.5011 53.7501 70.2625 53.7501 67.5011C53.7501 64.7396 55.9887 62.501 58.75 62.501C61.5114 62.501 63.75 64.7396 63.75 67.5011C63.75 70.2625 61.5114 72.5011 58.75 72.5011ZM72.31 52.5559C72.4342 52.7545 72.5 52.9841 72.5 53.2185V61.2511H68.75C68.0596 61.2511 67.5 61.8106 67.5 62.501C67.5 63.1914 68.0596 63.751 68.75 63.751H72.5V65.001C72.5 65.6914 71.9404 66.2509 71.25 66.2509H66.1376C65.531 62.6437 62.4079 60.0021 58.75 60.0021C55.0922 60.0021 51.9691 62.6437 51.3625 66.2509H22.3875C21.7808 62.6437 18.6579 60.0021 15 60.0021C11.3421 60.0021 8.21909 62.6437 7.6125 66.2509H3.75C3.05962 66.2509 2.50005 65.6914 2.50005 65.001V63.751H5.0001C5.69048 63.751 6.25005 63.1914 6.25005 62.501C6.25005 61.8106 5.69048 61.2511 5.0001 61.2511H2.50005V35.0006C2.50005 34.3103 3.05962 33.7507 3.75 33.7507H59.8649C60.296 33.7492 60.6968 33.9716 60.9237 34.3382L72.31 52.5559ZM51.25 25.0004C50.5597 25.0004 50.0001 24.4409 50.0001 23.7505V3.75006C50.0001 3.05967 50.5597 2.50009 51.25 2.50009H71.25C71.9404 2.50009 72.5 3.05967 72.5 3.75006V23.7503C72.5 24.4407 71.9404 25.0003 71.25 25.0003H51.25V25.0004Z" fill="white"/>
<path d="M48.7499 61.251H25C24.3096 61.251 23.75 61.8106 23.75 62.501C23.75 63.1913 24.3096 63.7509 25 63.7509H48.7499C49.4403 63.7509 49.9999 63.1913 49.9999 62.501C49.9999 61.8106 49.4403 61.251 48.7499 61.251Z" fill="white"/>
</svg>
