<svg width="64" height="79" viewBox="0 0 64 79" fill="none" xmlns="http://www.w3.org/2000/svg">
<path d="M43.0548 19.5027C43.3857 19.1759 43.3856 18.6461 43.0547 18.3193C42.7237 17.9925 42.1872 17.9925 41.8562 18.3194C41.5253 18.6462 41.5254 19.176 41.8563 19.5028C42.1873 19.8296 42.7238 19.8296 43.0548 19.5027Z" fill="white"/>
<path d="M45.3626 21.8437C45.6932 21.5171 45.6932 20.9877 45.3626 20.6612C45.0319 20.3347 44.4958 20.3347 44.1651 20.6612C43.8345 20.9877 43.8345 21.5171 44.1651 21.8437C44.4958 22.1702 45.0319 22.1702 45.3626 21.8437Z" fill="white"/>
<path d="M41.3893 21.188C41.72 20.861 41.7197 20.3312 41.3886 20.0046C41.0574 19.678 40.5209 19.6783 40.1901 20.0053C39.8594 20.3323 39.8598 20.8622 40.1909 21.1888C40.522 21.5153 41.0586 21.515 41.3893 21.188Z" fill="white"/>
<path d="M43.6967 23.5275C44.0271 23.2007 44.0268 22.6713 43.6959 22.345C43.365 22.0187 42.8289 22.0191 42.4984 22.3458C42.168 22.6726 42.1684 23.202 42.4993 23.5283C42.8302 23.8546 43.3663 23.8542 43.6967 23.5275Z" fill="white"/>
<path d="M39.6488 22.7989C39.9797 22.472 39.9796 21.9422 39.6487 21.6154C39.3177 21.2887 38.7812 21.2887 38.4502 21.6155C38.1193 21.9423 38.1194 22.4722 38.4503 22.799C38.7813 23.1257 39.3178 23.1257 39.6488 22.7989Z" fill="white"/>
<path d="M42.0292 25.2079C42.3597 24.8811 42.3593 24.3517 42.0284 24.0254C41.6975 23.6991 41.1614 23.6995 40.831 24.0263C40.5005 24.353 40.5009 24.8824 40.8318 25.2087C41.1627 25.535 41.6988 25.5347 42.0292 25.2079Z" fill="white"/>
<path d="M23.1669 39.1698C23.4974 38.8431 23.497 38.3136 23.1661 37.9873C22.8352 37.6611 22.2991 37.6614 21.9687 37.9882C21.6382 38.3149 21.6386 38.8443 21.9695 39.1706C22.3004 39.4969 22.8365 39.4966 23.1669 39.1698Z" fill="white"/>
<path d="M25.4796 41.508C25.8105 41.1817 25.8108 40.6523 25.4804 40.3255C25.15 39.9988 24.6139 39.9984 24.283 40.3247C23.9521 40.651 23.9517 41.1804 24.2821 41.5072C24.6126 41.8339 25.1487 41.8343 25.4796 41.508Z" fill="white"/>
<path d="M21.4269 40.7796C21.7571 40.4527 21.7563 39.9232 21.4252 39.5972C21.0941 39.2711 20.5579 39.2719 20.2278 39.5988C19.8976 39.9258 19.8983 40.4552 20.2294 40.7813C20.5606 41.1074 21.0967 41.1066 21.4269 40.7796Z" fill="white"/>
<path d="M23.8145 43.1916C24.1454 42.8653 24.1458 42.3359 23.8154 42.0091C23.4849 41.6824 22.9488 41.682 22.6179 42.0083C22.287 42.3346 22.2867 42.864 22.6171 43.1908C22.9475 43.5175 23.4836 43.5179 23.8145 43.1916Z" fill="white"/>
<path d="M19.7647 42.4673C20.0956 42.1405 20.0956 41.6107 19.7646 41.2839C19.4337 40.9571 18.8971 40.9571 18.5662 41.284C18.2353 41.6108 18.2353 42.1406 18.5663 42.4674C18.8973 42.7942 19.4338 42.7941 19.7647 42.4673Z" fill="white"/>
<path d="M22.154 44.731C22.485 44.4042 22.485 43.8744 22.1541 43.5476C21.8232 43.2207 21.2867 43.2207 20.9557 43.5475C20.6247 43.8743 20.6247 44.4041 20.9556 44.7309C21.2865 45.0577 21.8231 45.0578 22.154 44.731Z" fill="white"/>
<path d="M59.3862 43.9373C59.3862 43.9373 50.3865 36.4095 44.5637 30.5547C52.1868 23.3404 57.0572 19.3676 57.1628 19.2627L57.2684 19.1585C61.1858 15.29 61.7151 9.74861 58.4332 5.98505L57.9039 5.46238C56.3161 4.10295 54.1983 3.37109 52.0806 3.37109C49.3279 3.37109 46.6809 4.52133 44.5631 6.61199L44.4575 6.71627C44.4575 6.82055 40.3282 11.5258 33.1289 19.0535C24.1292 9.85289 20.8473 5.88013 20.8473 5.88013C19.6825 4.72989 16.4006 3.47537 14.071 3.47537C13.2242 3.47537 12.3769 3.68457 11.9532 4.10295C10.3654 5.67094 12.165 11.3172 13.7529 12.8852C13.7529 12.8852 17.7759 16.231 27.1993 25.0133C26.8818 25.3268 25.9289 26.2678 25.717 26.477C16.7174 17.1721 13.4354 13.1987 13.4354 13.1987C12.2706 12.0485 8.98871 10.7939 6.65911 10.7939C5.81239 10.7939 4.96503 11.0031 4.54135 11.4215C2.95415 12.9895 4.75383 18.6352 6.34231 20.2038C6.34231 20.2038 10.3654 23.4447 19.6825 32.3319C11.9532 39.6504 6.87159 43.833 6.87159 43.833L6.76599 43.9373C2.74295 47.91 2.31927 53.2422 5.60119 57.1107L6.13047 57.6333C7.82455 58.9928 9.83607 59.8289 11.9538 59.8289C14.6009 59.8289 17.2479 58.6787 19.4713 56.4831L19.5769 56.3788C19.6825 56.2745 23.918 51.2558 31.3292 43.6232C37.2582 49.478 44.8812 58.2603 44.8812 58.2603C45.6223 58.9921 46.999 59.4105 48.2693 59.4105C49.646 59.4105 51.022 58.9921 51.8694 58.156C53.4572 56.588 53.5634 52.8238 51.9749 51.2552C51.9749 51.2552 42.9753 43.7275 37.1525 37.8726L37.047 37.7683C37.2588 37.5591 38.4236 36.4089 38.741 36.0954C44.67 42.0552 52.293 50.9417 52.293 50.9417C53.0342 51.6736 54.4108 52.092 55.6812 52.092C57.0578 52.092 58.4338 51.6736 59.2812 50.8375C60.9746 49.2695 60.9746 45.5053 59.3862 43.9373ZM46.2578 8.28489C47.9519 6.61199 49.9634 5.77585 52.0812 5.77585C53.246 5.77585 54.4108 6.08933 55.3631 6.61199C56.2098 7.03037 56.8454 7.76223 57.269 8.49408C58.8569 11.2123 58.222 14.7673 55.575 17.4855C55.0457 17.9039 50.1753 21.9816 42.8697 28.8818C42.023 28.0456 41.2818 27.3138 40.5401 26.477C40.6457 26.1635 40.6457 25.8494 40.3282 25.6409C40.1164 25.4317 39.799 25.3274 39.4815 25.4317C39.0578 25.0133 38.6348 24.4906 38.2111 24.0723C38.3167 23.7588 38.2111 23.4447 37.9993 23.2361C37.7874 23.0269 37.47 22.9226 37.1525 23.0269C36.3058 22.1908 35.5647 21.354 34.823 20.6222C41.7049 13.5122 45.8342 8.80756 46.2578 8.28489ZM17.671 54.9151C15.9769 56.588 13.9654 57.5291 11.8476 57.5291C10.1535 57.5291 8.67127 56.9015 7.40087 55.7519C4.75383 52.8245 5.07127 48.8511 8.24759 45.6102C8.88311 45.1918 13.8591 41.0099 21.3766 34.0048C22.1177 34.7366 22.9644 35.4685 23.8118 36.3052C23.8118 36.3052 23.7062 36.3052 23.7062 36.4095C23.3887 36.723 23.3887 37.2457 23.7062 37.5598C24.0236 37.8732 24.5529 37.8732 24.871 37.5598L24.9766 37.4555C25.4002 37.8739 25.8233 38.2916 26.247 38.71C26.1414 38.71 26.1414 38.8143 26.1414 38.8143C25.8239 39.1278 25.8239 39.6504 26.1414 39.9645C26.4588 40.2786 26.9881 40.278 27.3062 39.9645C27.3062 39.9645 27.4118 39.8602 27.4118 39.7553C28.1529 40.4872 28.9996 41.3233 29.7414 42.0558C22.4358 49.3737 18.2002 54.3925 17.671 54.9151ZM50.2809 53.0337C50.9164 53.7655 50.8102 55.9611 50.1753 56.5887C49.8578 56.9021 49.1167 57.1113 48.2693 57.1113C47.422 57.1113 46.7871 56.9021 46.5753 56.6929C45.6223 55.6476 38.6348 47.5966 32.917 41.9509C16.4006 25.536 8.88311 19.367 7.93015 18.5309C7.08343 17.5898 6.13047 14.4532 6.23607 13.1987C6.34167 13.1987 6.44791 13.1987 6.55351 13.1987C8.35319 13.1987 10.8946 14.244 11.6358 14.8716C12.4825 15.9169 18.7295 23.1312 35.4578 39.6504C41.07 45.1918 49.3279 52.0926 50.2809 53.0337ZM35.3522 36.2003C32.3878 33.168 29.7407 30.5547 27.4118 28.1499C27.6236 27.9407 28.6822 26.8954 28.894 26.6862C31.3292 28.9867 33.9762 31.6 37.0463 34.5274C36.7289 34.8409 35.5641 35.9911 35.3522 36.2003ZM57.6921 49.1652C57.3746 49.4787 56.6335 49.6878 55.7862 49.6878C54.9388 49.6878 54.3039 49.4787 54.0921 49.2695C53.1391 48.2241 46.1516 40.1731 40.4338 34.5274C23.8118 18.2174 16.4006 11.9442 15.342 11.1074C14.4953 10.1664 13.5423 7.02974 13.6479 5.77522C13.7535 5.77522 13.8597 5.77522 13.9654 5.77522C15.765 5.77522 18.3065 6.71627 19.0476 7.44813C19.8943 8.49345 26.1414 15.8126 42.8697 32.2269C48.4812 37.7683 56.7397 44.7734 57.6921 45.6095C58.4332 46.342 58.3276 48.5376 57.6921 49.1652Z" fill="white"/>
<path d="M25.4003 32.1226C24.9766 32.541 24.9766 33.3771 25.4003 33.7955C25.824 34.2139 26.6707 34.2139 27.0944 33.7955C27.518 33.3771 27.518 32.541 27.0944 32.1226C26.6707 31.7042 25.9296 31.7042 25.4003 32.1226Z" fill="white"/>
<path d="M32.3877 37.769C31.7522 37.769 31.2229 38.2917 31.2229 38.9193C31.2229 39.2328 31.3285 39.5469 31.5403 39.7554C31.7522 39.9646 32.0696 40.0689 32.3871 40.0689C32.7045 40.0689 33.0226 39.9646 33.2338 39.7554C33.6575 39.337 33.6575 38.5009 33.2338 38.0825C33.0232 37.9776 32.7051 37.769 32.3877 37.769Z" fill="white"/>
<path d="M33.7644 24.3857C33.1289 24.3857 32.5996 24.9084 32.5996 25.536C32.5996 25.8495 32.7052 26.1636 32.917 26.3721C33.3407 26.7905 34.1875 26.7905 34.6111 26.3721C34.823 26.1629 34.9286 25.8495 34.9286 25.536C34.9286 25.2225 34.823 24.9084 34.6111 24.6998C34.3993 24.4907 34.0818 24.3857 33.7644 24.3857Z" fill="white"/>
<path d="M39.0577 30.764C38.8458 30.9732 38.7402 31.2866 38.7402 31.6001C38.7402 31.9136 38.8458 32.2277 39.0577 32.4363C39.2695 32.6454 39.587 32.7497 39.9044 32.7497C40.2218 32.7497 40.5399 32.6454 40.7511 32.4363C40.9629 32.2271 41.0685 31.9136 41.0685 31.6001C41.0685 31.2866 40.9629 30.9725 40.7511 30.764C40.2225 30.3456 39.4814 30.3456 39.0577 30.764Z" fill="white"/>
</svg>
