<svg width="47" height="46" viewBox="0 0 47 46" fill="none" xmlns="http://www.w3.org/2000/svg">
<g clip-path="url(#clip0)">
<path d="M38.7296 7.41907C38.3944 7.13744 37.892 7.17829 37.6075 7.50987C37.323 7.84164 37.3641 8.33884 37.6993 8.62037C41.1139 11.4891 43.0582 15.6539 43.0338 20.0469C43.0139 23.6086 41.7201 27.0074 39.3769 29.6891C40.1534 27.7342 40.5387 25.671 40.523 23.5467C40.4982 20.3036 39.5556 17.2841 37.8691 15.0441C36.231 12.8687 33.9902 11.5824 31.4975 11.3674L31.13 5.41024C32.5685 5.71448 33.9501 6.22759 35.2486 6.94108C35.371 7.00829 35.5036 7.04029 35.6343 7.04029C35.9141 7.04029 36.1856 6.89398 36.331 6.63479C36.5444 6.25431 36.4059 5.77472 36.0215 5.56343C34.4548 4.70256 32.7784 4.10579 31.0297 3.78421L30.9402 2.3339C30.9199 2.00473 30.6946 1.72301 30.3757 1.62765C23.113 -0.54259 15.4354 -0.54259 8.1727 1.62765C7.85374 1.72292 7.62851 2.00482 7.60819 2.3339L7.6007 2.45599L2.00871 5.65388C1.82295 5.76006 1.68839 5.93595 1.63547 6.14161C1.58255 6.34726 1.6156 6.56552 1.7274 6.7466L6.82613 15.0118L6.23968 24.5183C6.21295 24.9526 6.547 25.3262 6.9858 25.3527C7.42442 25.3784 7.80217 25.0486 7.8289 24.6143L9.15154 3.17377C9.17502 3.10906 9.18983 3.04159 9.19579 2.97294C15.8129 1.10784 22.769 1.1107 29.385 2.98179L31.6483 39.673H6.9001L7.61181 28.135C7.63854 27.7007 7.30449 27.327 6.86569 27.3006C6.42689 27.2735 6.04931 27.6047 6.02258 28.039L5.305 39.6731H4.07584C3.7417 39.6731 3.44305 39.8796 3.32827 40.1901L1.65949 44.7018C1.57009 44.9434 1.60558 45.2132 1.75459 45.4241C1.9035 45.6349 2.14715 45.7607 2.40705 45.7607H27.9087C28.3485 45.7607 28.7049 45.4079 28.7049 44.9727C28.7049 44.5376 28.3485 44.1848 27.9087 44.1848H3.54619L4.63195 41.2489H33.9163L35.0021 44.1848H31.093C30.6532 44.1848 30.2968 44.5376 30.2968 44.9727C30.2968 45.4079 30.6532 45.7607 31.093 45.7607H36.1414C36.4014 45.7607 36.645 45.635 36.7939 45.4241C36.9428 45.2132 36.9783 44.9436 36.889 44.7018L35.2202 40.1901C35.1053 39.8795 34.8068 39.6731 34.4726 39.6731H33.2435L31.5956 12.9602C34.0325 13.2453 35.6423 14.7241 36.5923 15.9857C38.0779 17.9589 38.9083 20.6482 38.9306 23.5584C38.9463 25.678 38.5212 27.7296 37.667 29.655C37.3715 30.319 37.5927 31.0638 38.2052 31.4663C38.4612 31.6346 38.7466 31.7168 39.0286 31.7168C39.4184 31.7168 39.8018 31.5595 40.093 31.2546C42.9926 28.2128 44.6024 24.2356 44.6259 20.0556C44.653 15.1957 42.5038 10.59 38.7296 7.41907ZM6.99564 12.2627L3.51142 6.6145L7.4842 4.34246L6.99564 12.2627Z" fill="#6B5F44"/>
<path d="M19.2743 7.73007C17.7294 7.73007 16.4724 8.97401 16.4724 10.5031V31.7985C16.4724 33.3276 17.7294 34.5716 19.2743 34.5716C20.8192 34.5716 22.0762 33.3276 22.0762 31.7985V10.5031C22.0762 8.97401 20.8192 7.73007 19.2743 7.73007ZM18.0645 10.5031C18.0646 9.84284 18.6072 9.30578 19.2742 9.30578C19.9412 9.30578 20.4839 9.84284 20.4839 10.503V12.1382H18.0645V10.5031ZM20.484 31.7984C20.484 32.4586 19.9413 32.9957 19.2743 32.9957C18.6073 32.9957 18.0646 32.4586 18.0646 31.7984V28.3684H20.484V31.7984ZM20.484 26.7926H18.0646V23.4837H20.484V26.7926ZM20.484 21.9079H18.0646V18.5989H20.484V21.9079ZM20.484 17.0231H18.0646V13.7141H20.484V17.0231Z" fill="#6B5F44"/>
</g>
<defs>
<clipPath id="clip0">
<rect width="46.237" height="45.7606" fill="white"/>
</clipPath>
</defs>
</svg>
