<svg width="20" height="20" viewBox="0 0 20 20" fill="none" xmlns="http://www.w3.org/2000/svg">
<path d="M14.5862 0H5.41381C2.42858 0 0 2.42858 0 5.41381V14.5863C0 17.5714 2.42858 20 5.41381 20H14.5863C17.5714 20 20 17.5714 20 14.5863V5.41381C20 2.42858 17.5714 0 14.5862 0V0ZM9.99998 15.4686C6.98454 15.4686 4.53139 13.0154 4.53139 9.99998C4.53139 6.98454 6.98454 4.53139 9.99998 4.53139C13.0154 4.53139 15.4686 6.98454 15.4686 9.99998C15.4686 13.0154 13.0154 15.4686 9.99998 15.4686ZM15.5993 5.82106C14.7082 5.82106 13.9834 5.09627 13.9834 4.20516C13.9834 3.31405 14.7082 2.58911 15.5993 2.58911C16.4904 2.58911 17.2154 3.31405 17.2154 4.20516C17.2154 5.09627 16.4904 5.82106 15.5993 5.82106Z" fill="#523315"/>
<path d="M10.0003 6.66667C8.1624 6.66667 6.66699 8.16197 6.66699 10C6.66699 11.8379 8.1624 13.3333 10.0003 13.3333C11.8384 13.3333 13.3337 11.8379 13.3337 10C13.3337 8.16197 11.8384 6.66667 10.0003 6.66667Z" fill="#523315"/>
<path d="M15.5997 3.7618C15.3552 3.7618 15.1562 3.96077 15.1562 4.20521C15.1562 4.44966 15.3552 4.64863 15.5997 4.64863C15.8443 4.64863 16.0432 4.44981 16.0432 4.20521C16.0432 3.96062 15.8443 3.7618 15.5997 3.7618Z" fill="#523315"/>
</svg>
