<svg width="47" height="47" viewBox="0 0 47 47" fill="none" xmlns="http://www.w3.org/2000/svg">
<g clip-path="url(#clip0)">
<path d="M42.2255 21.4776C42.1394 21.4776 42.0522 21.4655 41.9657 21.4404C39.8241 20.8133 37.5123 20.4953 35.0948 20.4953C33.0178 20.4953 31.0095 20.7308 29.1247 21.195C28.6348 21.3157 28.1381 21.0201 28.0162 20.5339C27.8944 20.048 28.1931 19.5562 28.6834 19.4354C30.7121 18.9358 32.8691 18.6823 35.0948 18.6823C37.6878 18.6823 40.1739 19.025 42.4842 19.7014C42.9688 19.8434 43.2454 20.3476 43.1025 20.8278C42.9849 21.2219 42.6204 21.4776 42.2255 21.4776Z" fill="#6B5F44"/>
<path d="M26.1451 33.1131C26.0858 33.1131 26.0254 33.1074 25.9668 33.0958C25.9081 33.0841 25.8506 33.0667 25.7956 33.0441C25.7409 33.0214 25.6869 32.9934 25.6373 32.9608C25.5872 32.9272 25.5404 32.889 25.4983 32.8475C25.4564 32.8057 25.4179 32.7594 25.385 32.7094C25.3521 32.6606 25.3235 32.6082 25.3006 32.5536C25.2778 32.4984 25.2606 32.4414 25.2485 32.384C25.2367 32.3252 25.2302 32.2654 25.2302 32.2066C25.2302 32.1475 25.2367 32.0876 25.2485 32.0295C25.2606 31.9718 25.2778 31.9145 25.3006 31.8603C25.3235 31.805 25.3521 31.7523 25.385 31.7034C25.4179 31.6535 25.4564 31.6075 25.4983 31.5657C25.5404 31.5239 25.5872 31.4856 25.6373 31.4531C25.6869 31.4205 25.7409 31.3925 25.7956 31.3698C25.8506 31.3472 25.9081 31.3298 25.9668 31.3181C26.0847 31.2944 26.2065 31.2944 26.3245 31.3181C26.3831 31.3298 26.4399 31.3472 26.4956 31.3698C26.5503 31.3925 26.6036 31.4205 26.6529 31.4531C26.7033 31.4856 26.7497 31.5239 26.7919 31.5657C26.8341 31.6075 26.8723 31.6535 26.9063 31.7034C26.9391 31.7523 26.9677 31.805 26.9906 31.8603C27.0135 31.9145 27.0306 31.9718 27.0428 32.0295C27.0546 32.0876 27.0599 32.1475 27.0599 32.2066C27.0599 32.2654 27.0546 32.3252 27.0428 32.384C27.0306 32.4414 27.0135 32.4984 26.9906 32.5536C26.9677 32.6082 26.9391 32.6606 26.9063 32.7094C26.8723 32.7594 26.8341 32.8057 26.7919 32.8475C26.7497 32.889 26.7033 32.9272 26.6529 32.9608C26.6036 32.9934 26.5503 33.0214 26.4956 33.0441C26.4399 33.0667 26.3831 33.0841 26.3245 33.0958C26.2652 33.1074 26.2055 33.1131 26.1451 33.1131Z" fill="#6B5F44"/>
<path d="M35.5679 6.48187C29.3527 6.48187 24.2961 11.4921 24.2961 17.6511C24.2961 20.2867 24.3922 22.9648 24.5824 25.611V25.6114C24.6606 26.7024 24.7171 27.4141 24.8282 28.5083C24.8754 28.9757 25.2731 29.3242 25.7373 29.3242C25.7677 29.3242 25.7988 29.3227 25.8299 29.3196C26.3327 29.2696 26.699 28.8252 26.6486 28.327C26.5603 27.4552 26.5071 26.8295 26.4488 26.0483C26.9334 25.7877 27.4552 25.5508 28.0076 25.3398C28.2313 28.4966 28.5962 31.6202 29.1183 34.8532L29.6236 37.9792C30.0935 40.8896 32.5933 43.0022 35.5679 43.0022C38.5426 43.0022 41.0426 40.8893 41.5126 37.9785L42.0175 34.8535C42.5189 31.7491 42.8748 28.7516 43.1003 25.7275C43.6589 25.9878 44.1763 26.276 44.6434 26.5908C44.4097 29.441 44.0627 32.3029 43.6103 35.1056L43.105 38.2317C42.5089 41.9218 39.3391 44.6003 35.5679 44.6003C31.7967 44.6003 28.6269 41.9218 28.0309 38.2317L27.661 35.942C27.581 35.4477 27.1121 35.1106 26.6129 35.1903C26.114 35.2696 25.7745 35.7342 25.8542 36.2289L26.2244 38.5182C26.9631 43.0929 30.8926 46.4133 35.5679 46.4133C40.2432 46.4133 44.1728 43.0929 44.9114 38.5182L45.4167 35.3925C45.9038 32.3748 46.2712 29.2895 46.5081 26.2229C46.7282 23.3741 46.8397 20.4899 46.8397 17.6511C46.8397 11.4921 41.7831 6.48187 35.5679 6.48187ZM40.2107 34.5671L39.7058 37.6924C39.3784 39.7186 37.6384 41.1892 35.5679 41.1892C33.4974 41.1892 31.7574 39.7189 31.4304 37.6927L30.9251 34.5667C30.3873 31.2363 30.0192 28.025 29.8023 24.7704C31.4372 24.3479 33.244 24.1213 35.0948 24.1213C37.3108 24.1213 39.456 24.4467 41.3157 25.0374C41.0966 28.1992 40.7346 31.3234 40.2107 34.5671ZM44.7913 24.5498C42.2262 23.1135 38.7891 22.3083 35.0948 22.3083C31.8332 22.3083 28.7745 22.9322 26.3159 24.0823C26.1898 21.9375 26.1258 19.78 26.1258 17.6511C26.1258 12.4918 30.3616 8.29489 35.5679 8.29489C40.7743 8.29489 45.01 12.4921 45.01 17.6511C45.01 19.9354 44.9364 22.2495 44.7913 24.5498Z" fill="#6B5F44"/>
<path d="M20.6946 26.6315C20.6349 26.6315 20.5746 26.6252 20.5152 26.6131C20.4577 26.6025 20.3998 26.5844 20.3441 26.5618C20.2894 26.5391 20.2361 26.5108 20.1868 26.4782C20.1364 26.4456 20.09 26.4074 20.0478 26.366C20.0049 26.3242 19.9674 26.2778 19.9334 26.2279C19.9006 26.179 19.872 26.1266 19.8491 26.0714C19.8262 26.0168 19.8091 25.9598 19.7969 25.9017C19.7851 25.8437 19.7798 25.7838 19.7798 25.725C19.7798 25.6659 19.7851 25.6061 19.7969 25.548C19.8091 25.4903 19.8262 25.4329 19.8491 25.3777C19.872 25.3235 19.9006 25.2707 19.9334 25.2219C19.9674 25.1719 20.0049 25.1259 20.0478 25.0841C20.09 25.0423 20.1364 25.0041 20.1868 24.9708C20.2361 24.9382 20.2894 24.9099 20.3441 24.8872C20.3998 24.8646 20.4577 24.8476 20.5152 24.8355C20.6332 24.8122 20.755 24.8122 20.8729 24.8355C20.9316 24.8476 20.9891 24.8646 21.0441 24.8872C21.0988 24.9099 21.1528 24.9382 21.2024 24.9708C21.2525 25.0041 21.2993 25.0423 21.3414 25.0841C21.3833 25.1259 21.4218 25.1719 21.4547 25.2219C21.4876 25.2707 21.5162 25.3235 21.5391 25.3777C21.5619 25.4329 21.5791 25.4903 21.5912 25.548C21.603 25.6061 21.6095 25.6659 21.6095 25.725C21.6095 25.7838 21.603 25.8437 21.5912 25.9017C21.5791 25.9598 21.5619 26.0168 21.5391 26.0714C21.5162 26.1266 21.4876 26.179 21.4547 26.2279C21.4218 26.2778 21.3833 26.3242 21.3414 26.366C21.2993 26.4074 21.2525 26.4456 21.2024 26.4782C21.1528 26.5108 21.0988 26.5391 21.0441 26.5618C20.9891 26.5844 20.9316 26.6025 20.8729 26.6131C20.8143 26.6252 20.7539 26.6315 20.6946 26.6315Z" fill="#6B5F44"/>
<path d="M22.5436 11.1692C22.5436 5.01059 17.487 0 11.2718 0C5.05662 0 0 5.01059 0 11.1692C0 14.0084 0.111496 16.8923 0.331629 19.741C0.568557 22.8079 0.935922 25.8929 1.423 28.911L1.92831 32.0363C2.66697 36.6113 6.59648 39.9314 11.2718 39.9314C15.9471 39.9314 19.8766 36.6113 20.6153 32.0366L20.9855 29.747C21.0652 29.2527 20.7257 28.7877 20.2268 28.7084C19.7276 28.6294 19.2588 28.9658 19.1787 29.4602L18.8085 31.7498C18.2128 35.44 15.043 38.1184 11.2718 38.1184C7.50024 38.1184 4.33083 35.44 3.73475 31.7498L3.22981 28.6241C2.77703 25.8214 2.43004 22.9595 2.19633 20.1093C2.66375 19.7945 3.18085 19.5059 3.7394 19.246C3.96489 22.2697 4.32082 25.2672 4.8222 28.372L5.32714 31.497C5.79707 34.4077 8.29715 36.5203 11.2718 36.5203C14.2461 36.5203 16.7462 34.4081 17.2161 31.4977L17.7214 28.3713C18.2432 25.1387 18.608 22.0151 18.8321 18.8579C19.3846 19.0693 19.9063 19.3062 20.3909 19.5668C20.3326 20.348 20.2794 20.9737 20.1908 21.8455C20.1404 22.3437 20.507 22.7881 21.0098 22.838C21.0409 22.8412 21.0716 22.8426 21.1024 22.8426C21.5666 22.8426 21.9643 22.4939 22.0115 22.0264C22.1223 20.9326 22.1791 20.2208 22.2574 19.1295V19.1291C22.4475 16.4833 22.5436 13.8052 22.5436 11.1692ZM11.2718 1.81302C16.4782 1.81302 20.7139 6.01023 20.7139 11.1692C20.7139 13.2984 20.65 15.4556 20.5238 17.6008C18.0652 16.4503 15.0066 15.8268 11.7449 15.8268C8.05057 15.8268 4.6135 16.6316 2.04838 18.0682C1.90329 15.7676 1.82968 13.4535 1.82968 11.1692C1.82968 6.01023 6.06545 1.81302 11.2718 1.81302ZM15.915 28.0845L15.4097 31.2112C15.0823 33.2371 13.3423 34.7073 11.2718 34.7073C9.20127 34.7073 7.46129 33.2367 7.13395 31.2102L6.629 28.0855C6.10511 24.8416 5.74311 21.7177 5.52441 18.5555C7.3841 17.9648 9.52896 17.6398 11.7449 17.6398C13.5961 17.6398 15.4029 17.8664 17.0374 18.2885C16.8205 21.5431 16.4524 24.7545 15.915 28.0845Z" fill="#6B5F44"/>
<path d="M4.61421 14.9956C4.69998 14.9956 4.78717 14.9836 4.87365 14.9585C7.01566 14.3313 9.32741 14.0137 11.7449 14.0137C13.8219 14.0137 15.8303 14.2488 17.715 14.7131C18.2046 14.8342 18.7016 14.5381 18.8235 14.0523C18.9454 13.5661 18.6466 13.0746 18.1563 12.9539C16.1276 12.4539 13.9706 12.2007 11.7449 12.2007C9.15159 12.2007 6.66545 12.5435 4.35548 13.2194C3.87091 13.3614 3.59395 13.8657 3.73725 14.3459C3.85483 14.7403 4.21933 14.9956 4.61421 14.9956Z" fill="#6B5F44"/>
</g>
<defs>
<clipPath id="clip0">
<rect width="46.8397" height="46.4133" fill="white"/>
</clipPath>
</defs>
</svg>
