<svg width="48" height="47" viewBox="0 0 48 47" fill="none" xmlns="http://www.w3.org/2000/svg">
<g clip-path="url(#clip0)">
<path d="M45.5649 -1.03565e-06H13.1628C12.7042 -1.03565e-06 12.3323 0.365326 12.3323 0.816011C12.3323 1.2666 12.7041 1.63202 13.1628 1.63202H44.7344V41.6102H4.04517V34.756H6.09933V38.7761C6.09933 39.2267 6.47115 39.5921 6.92985 39.5921H11.7152C12.1738 39.5921 12.5457 39.2268 12.5457 38.7761C12.5457 38.3255 12.1739 37.9601 11.7152 37.9601H7.76029V34.756H8.47704C8.93565 34.756 9.30757 34.3907 9.30757 33.94V25.7275C9.30757 25.2769 8.93574 24.9115 8.47704 24.9115H7.76029V18.3309H8.47704C8.93565 18.3309 9.30757 17.9656 9.30757 17.5149V9.30217C9.30757 8.85157 8.93574 8.48616 8.47704 8.48616H7.76029V5.28212H41.0192V9.69021C41.0192 10.1408 41.3911 10.5062 41.8498 10.5062C42.3084 10.5062 42.6803 10.1409 42.6803 9.69021V4.4662C42.6803 4.01561 42.3085 3.65019 41.8498 3.65019H6.92976C6.47115 3.65019 6.09923 4.01552 6.09923 4.4662V8.48607H4.04517V1.63193H10.2678C10.7264 1.63193 11.0983 1.2666 11.0983 0.81592C11.0983 0.365326 10.7265 -9.15527e-05 10.2678 -9.15527e-05H3.21464C2.75603 -9.15527e-05 2.38411 0.365235 2.38411 0.81592V8.48616H1.60425C1.14565 8.48616 0.773727 8.85148 0.773727 9.30217V17.5149C0.773727 17.9655 1.14555 18.3309 1.60425 18.3309H2.38411V24.9115H1.60425C1.14565 24.9115 0.773727 25.2768 0.773727 25.7275V33.94C0.773727 34.3906 1.14555 34.756 1.60425 34.756H2.38411V42.4263C2.38411 42.8769 2.75594 43.2423 3.21464 43.2423H6.56328V45.5291C6.56328 45.9797 6.93511 46.3451 7.39381 46.3451H16.124C16.5826 46.3451 16.9545 45.9798 16.9545 45.5291V43.2423H31.8251V45.5291C31.8251 45.9797 32.1969 46.3451 32.6557 46.3451H41.3858C41.8444 46.3451 42.2163 45.9798 42.2163 45.5291V43.2423H45.5651C46.0237 43.2423 46.3956 42.8769 46.3956 42.4263V0.816011C46.3953 0.365326 46.0237 -1.03565e-06 45.5649 -1.03565e-06ZM2.43478 16.6988V10.1182H7.64642V16.699H2.43478V16.6988ZM6.09933 18.3307V24.9113H4.04517V18.3307H6.09933ZM2.43478 33.124V26.5434H7.64642V33.124H2.43478ZM8.22424 44.7128V43.242H15.2934V44.7128H8.22424ZM40.5553 44.7128H33.4861V43.242H40.5553V44.7128Z" fill="#6B5F44"/>
<path d="M41.8498 11.7187C41.3912 11.7187 41.0193 12.084 41.0193 12.5347V37.96H14.6103C14.1516 37.96 13.7797 38.3253 13.7797 38.776C13.7797 39.2266 14.1515 39.592 14.6103 39.592H41.8498C42.3084 39.592 42.6803 39.2267 42.6803 38.776V12.5347C42.6802 12.084 42.3084 11.7187 41.8498 11.7187Z" fill="#6B5F44"/>
<path d="M24.746 12.6729C19.7282 12.6729 15.6458 16.6838 15.6458 21.6139C15.6458 26.5441 19.7282 30.555 24.746 30.555C29.7639 30.555 33.8461 26.544 33.8461 21.6139C33.8461 16.6838 29.7638 12.6729 24.746 12.6729ZM32.1376 20.7979H29.0259C28.9124 20.2222 28.6821 19.687 28.3589 19.2181L30.5572 17.0583C31.4116 18.1083 31.978 19.3933 32.1376 20.7979ZM25.5766 14.3515C27.0062 14.5083 28.3141 15.0649 29.3827 15.9043L27.1845 18.0641C26.7071 17.7466 26.1624 17.5203 25.5766 17.4088V14.3515ZM23.9156 14.3516V17.4087H23.9155C23.3297 17.5202 22.7849 17.7465 22.3076 18.064L20.1095 15.9043C21.1781 15.0649 22.486 14.5084 23.9156 14.3516ZM18.935 17.0583L21.1332 19.2181C20.81 19.6871 20.5797 20.2222 20.4662 20.798H17.3545C17.514 19.3933 18.0806 18.1083 18.935 17.0583ZM17.3546 22.4298H20.4661V22.4299C20.5796 23.0055 20.8099 23.5408 21.1331 24.0097L18.935 26.1694C18.0806 25.1194 17.5142 23.8344 17.3546 22.4298ZM23.9155 28.8763C22.4859 28.7195 21.1782 28.1629 20.1094 27.3235L22.3076 25.1637C22.785 25.4812 23.3297 25.7075 23.9155 25.819V28.8763ZM22.0468 21.6139C22.0468 20.1516 23.2577 18.9618 24.746 18.9618C26.2343 18.9618 27.4453 20.1516 27.4453 21.6139C27.4453 23.0763 26.2344 24.2659 24.746 24.2659C23.2576 24.2659 22.0468 23.0763 22.0468 21.6139ZM25.5766 28.8761V25.819H25.5765C26.1623 25.7075 26.7072 25.4812 27.1846 25.1637L29.3828 27.3234C28.3141 28.1629 27.0062 28.7194 25.5766 28.8761ZM30.5572 26.1696L28.3589 24.0098C28.6821 23.5407 28.9124 23.0056 29.0259 22.43H32.1376C31.978 23.8346 31.4116 25.1194 30.5572 26.1696Z" fill="#6B5F44"/>
</g>
<defs>
<clipPath id="clip0">
<rect width="47.1692" height="46.3448" fill="white"/>
</clipPath>
</defs>
</svg>
