<svg width="59" height="47" viewBox="0 0 59 47" fill="none" xmlns="http://www.w3.org/2000/svg">
<path d="M57.0842 0.542358H10.6254C10.0909 0.542358 9.6577 0.971194 9.6577 1.50011C9.6577 2.02903 10.0909 2.45787 10.6254 2.45787H56.1165V35.8978H2.39395V2.45787H7.70042C8.23496 2.45787 8.66815 2.02903 8.66815 1.50011C8.66815 0.971194 8.23496 0.542358 7.70042 0.542358H1.42622C0.891684 0.542358 0.458496 0.971194 0.458496 1.50011V36.8556C0.458496 37.3845 0.891684 37.8133 1.42622 37.8133H18.61V40.4555H16.2229C13.4125 40.4555 11.1261 42.7183 11.1261 45.4998C11.1261 46.0287 11.5593 46.4575 12.0938 46.4575H46.4166C46.9511 46.4575 47.3843 46.0287 47.3843 45.4998C47.3843 42.7183 45.0979 40.4555 42.2875 40.4555H39.9004V37.8135H57.0842C57.6188 37.8135 58.0519 37.3846 58.0519 36.8557V1.50011C58.0519 0.971194 57.6186 0.542358 57.0842 0.542358ZM20.5454 37.8136H37.9649V40.4557H20.5454V37.8136ZM42.2875 42.3712C43.6932 42.3712 44.8877 43.284 45.2974 44.5422H13.2131C13.6228 43.284 14.8173 42.3712 16.2229 42.3712H42.2875Z" fill="#6B5F44"/>
<path d="M53.3421 24.3225C53.8766 24.3225 54.3098 23.8936 54.3098 23.3647V5.20354C54.3098 4.67462 53.8766 4.24579 53.3421 4.24579H5.16811C4.63357 4.24579 4.20038 4.67462 4.20038 5.20354V33.1524C4.20038 33.6813 4.63357 34.1101 5.16811 34.1101H53.3421C53.8766 34.1101 54.3098 33.6813 54.3098 33.1524V26.4298C54.3098 25.9009 53.8766 25.4721 53.3421 25.4721C52.8076 25.4721 52.3744 25.9009 52.3744 26.4298V32.1946H6.13583V6.1613H52.3744V23.3647C52.3744 23.8936 52.8076 24.3225 53.3421 24.3225Z" fill="#6B5F44"/>
<path d="M26.4593 10.7708H16.9968C16.4623 10.7708 16.0291 11.1996 16.0291 11.7285C16.0291 12.2574 16.4623 12.6863 16.9968 12.6863H20.8463V26.6273C20.8463 27.1562 21.2794 27.5851 21.814 27.5851C22.3485 27.5851 22.7817 27.1562 22.7817 26.6273V12.6864H26.4591C26.9937 12.6864 27.4269 12.2575 27.4269 11.7286C27.427 11.1996 26.9938 10.7708 26.4593 10.7708Z" fill="#6B5F44"/>
<path d="M32.3456 14.3489L31.2369 11.3951C31.051 10.8992 30.4936 10.6466 29.9928 10.8307C29.4918 11.0149 29.2366 11.5662 29.4226 12.062L30.5313 15.0159C30.6761 15.4018 31.0456 15.6403 31.4385 15.6403C31.5504 15.6403 31.6643 15.621 31.7753 15.5802C32.2764 15.3961 32.5316 14.8448 32.3456 14.3489Z" fill="#6B5F44"/>
<path d="M41.8504 10.8306C41.3496 10.6464 40.7924 10.8991 40.6063 11.395L35.9214 23.8766L33.2394 16.7303C33.0535 16.2344 32.4961 15.9818 31.9953 16.1659C31.4943 16.3501 31.239 16.9014 31.4251 17.3972L35.0146 26.9609C35.1553 27.3361 35.5173 27.5851 35.9217 27.5851C36.3261 27.5851 36.688 27.336 36.8288 26.9609L42.4206 12.062C42.6067 11.5661 42.3514 11.0148 41.8504 10.8306Z" fill="#6B5F44"/>
</svg>
