<svg width="23" height="22" viewBox="0 0 23 22" fill="none" xmlns="http://www.w3.org/2000/svg">
<path d="M17.6094 0H4.74235C2.12874 0 0 2.09524 0 4.66772V17.3439C0 19.9048 2.12874 22 4.74235 22H17.6212C20.223 22 22.3636 19.9048 22.3636 17.3323V4.66772C22.3517 2.09524 20.223 0 17.6094 0ZM17.089 8.31111C17.089 8.42751 17.1009 8.55556 17.1009 8.67196C17.1009 12.3968 14.2152 16.7037 8.9407 16.7037C7.32049 16.7037 5.81855 16.2381 4.55313 15.4349C4.77783 15.4582 5.00253 15.4698 5.23906 15.4698C6.57543 15.4698 7.8172 15.0159 8.79878 14.2593C7.54519 14.236 6.48082 13.4212 6.11421 12.3037C6.2916 12.3386 6.469 12.3503 6.64639 12.3503C6.90657 12.3503 7.15492 12.3153 7.40328 12.2455C6.09056 11.9894 5.10897 10.8487 5.10897 9.48677C5.10897 9.47513 5.10897 9.46349 5.10897 9.45185C5.48741 9.66138 5.93681 9.78942 6.40987 9.80106C5.64116 9.30053 5.13262 8.42751 5.13262 7.44974C5.13262 6.93757 5.27454 6.44868 5.52289 6.02963C6.94205 7.74074 9.04714 8.8582 11.4361 8.9746C11.3887 8.76508 11.3651 8.55556 11.3651 8.33439C11.3651 6.7746 12.6423 5.51746 14.2271 5.51746C15.0549 5.51746 15.8 5.86667 16.3203 6.41376C16.9708 6.28571 17.5857 6.05291 18.1416 5.72698C17.9287 6.37884 17.4675 6.93757 16.8762 7.28677C17.4556 7.21693 18.0115 7.06561 18.52 6.84444C18.1298 7.41481 17.6449 7.91534 17.089 8.31111Z" fill="white"/>
</svg>
