<svg width="50" height="38" viewBox="0 0 50 38" fill="none" xmlns="http://www.w3.org/2000/svg">
<path d="M2.74556 10.962L2.91594 10.8132L2.74556 10.6644C1.58601 9.65165 0.854032 8.17219 0.854032 6.52648C0.854032 3.48551 3.35127 1.00842 6.42459 1.00842H39.7836C45.2423 1.00842 49.6803 5.40858 49.6803 10.8132C49.6803 13.7864 48.3374 16.4548 46.2195 18.2548L45.9743 18.4633L46.2712 18.5876C48.2738 19.4261 49.6803 21.3913 49.6803 23.6734C49.6803 25.3188 48.9493 26.7986 47.7909 27.8113L47.6208 27.9601L47.7909 28.1088C48.9493 29.1215 49.6803 30.6013 49.6803 32.2468C49.6803 35.2878 47.183 37.7648 44.1097 37.7648H10.7507C5.292 37.7648 0.854032 33.3647 0.854032 27.9601C0.854032 24.9868 2.19693 22.3185 4.31477 20.5184L4.56003 20.31L4.26312 20.1856C2.26046 19.3471 0.854032 17.382 0.854032 15.0999C0.854032 13.4542 1.58601 11.9747 2.74556 10.962ZM3.34296 15.0999C3.34296 16.7866 4.72682 18.1553 6.42459 18.1553H39.7836C43.8667 18.1553 47.1913 14.8635 47.1913 10.8132C47.1913 6.76284 43.8667 3.4711 39.7836 3.4711H6.42459C4.72682 3.4711 3.34296 4.83977 3.34296 6.52648C3.34296 8.21318 4.72682 9.58186 6.42459 9.58186H42.6677C43.3568 9.58186 43.9121 10.1348 43.9121 10.8132C43.9121 11.4916 43.3568 12.0445 42.6677 12.0445H6.42459C4.72682 12.0445 3.34296 13.4132 3.34296 15.0999ZM47.1913 23.6734C47.1913 21.9866 45.8075 20.618 44.1097 20.618H10.7507C6.66756 20.618 3.34296 23.9097 3.34296 27.9601C3.34296 32.0104 6.66756 35.3022 10.7507 35.3022H44.1097C45.8075 35.3022 47.1913 33.9335 47.1913 32.2468C47.1913 30.5601 45.8075 29.1914 44.1097 29.1914H7.86663C7.17754 29.1914 6.62216 28.6385 6.62216 27.9601C6.62216 27.2816 7.17754 26.7287 7.86663 26.7287H44.1097C45.8075 26.7287 47.1913 25.3601 47.1913 23.6734Z" fill="#6B5F44" stroke="white" stroke-width="0.395136"/>
</svg>
