<svg width="50" height="48" viewBox="0 0 50 48" fill="none" xmlns="http://www.w3.org/2000/svg">
<path d="M3.89757 47.7374H12.6082C14.351 47.7354 15.7637 46.3375 15.7658 44.6123V40.6168H46.585C48.1447 40.6151 49.4088 39.3641 49.4105 37.8204V36.7249H49.4088C49.4091 36.5737 49.3744 36.4242 49.3057 36.2892L46.2583 30.2903C46.2155 30.2061 46.161 30.1286 46.096 30.0606V7.06314C46.0947 6.02392 45.243 5.18171 44.193 5.18036H38.6856C38.1446 5.18036 37.7056 5.61443 37.7056 6.1502C37.7056 6.68564 38.1446 7.12005 38.6856 7.12005H44.1362V29.7559H15.7658V28.0014H41.5308C42.0725 28.0014 42.5107 27.5673 42.5107 27.0315V9.78477C42.5107 9.24866 42.0725 8.81492 41.5308 8.81492H37.5967C37.0557 8.81492 36.6168 9.24866 36.6168 9.78477C36.6168 10.3202 37.0557 10.7546 37.5967 10.7546H40.5509V26.0617H15.7658V24.6766C15.7641 23.009 14.4405 21.6354 12.7572 21.5549V10.7546H16.2064C16.7474 10.7546 17.1864 10.3202 17.1864 9.78477C17.1864 9.24866 16.7474 8.81492 16.2064 8.81492H11.7773C11.2356 8.81492 10.7973 9.24866 10.7973 9.78477V21.5519H9.17191V7.12005H15.1172C15.6583 7.12005 16.0972 6.68564 16.0972 6.1502C16.0972 5.61443 15.6583 5.18036 15.1172 5.18036H9.11509C8.06505 5.18171 7.21339 6.02392 7.21202 7.06314V21.5516H3.89757C2.15477 21.5536 0.742017 22.9518 0.739975 24.6766V44.6123C0.742017 46.3375 2.15477 47.7354 3.89757 47.7374ZM12.6082 45.7977H3.89757C3.23611 45.797 2.70054 45.267 2.69986 44.6123V42.8882H13.8059V44.6123C13.8052 45.267 13.2696 45.797 12.6082 45.7977ZM13.5514 27.2898C13.597 27.4528 13.6848 27.6013 13.8059 27.7202V40.9485H2.69986V27.2898H13.5514ZM46.585 38.6771H15.7658V37.6975H20.0557C20.4967 37.6975 20.8833 37.4062 21.0003 36.9852L21.3899 35.5874C21.494 35.2166 21.8353 34.9593 22.2242 34.9587H31.0842C31.4728 34.9593 31.814 35.2166 31.9182 35.5874L32.3078 36.9852C32.4248 37.4059 32.8113 37.6975 33.2523 37.6975L47.4506 37.6951V37.8211C47.4499 38.2935 47.0627 38.6768 46.585 38.6771ZM44.7789 31.6955L46.8409 35.7551L33.9982 35.7575L33.8069 35.0718C33.4667 33.8602 32.3537 33.0213 31.0839 33.019H22.2242C20.954 33.0213 19.8407 33.8602 19.5004 35.0718L19.3092 35.7575H15.7658V31.6955H44.7789ZM3.89757 23.4913H12.6082C13.269 23.4923 13.8052 24.0226 13.8059 24.6766V25.3501H2.69986V24.6766C2.70054 24.0226 3.23679 23.4923 3.89757 23.4913Z" fill="#6B5F44"/>
<path d="M9.47779 43.3731H7.02793C6.48692 43.3731 6.04799 43.8075 6.04799 44.3429C6.04799 44.8784 6.48692 45.3128 7.02793 45.3128H9.47779C10.0188 45.3128 10.4577 44.8784 10.4577 44.3429C10.4577 43.8075 10.0188 43.3731 9.47779 43.3731Z" fill="#6B5F44"/>
<path d="M36.2364 5.74205C36.6104 5.35479 36.5964 4.74089 36.2051 4.3708C33.6913 1.99265 30.3047 0.701548 26.6704 0.739937C23.0596 0.77597 19.6805 2.1122 17.1558 4.50045C16.8985 4.7392 16.7903 5.09616 16.8723 5.43493C16.955 5.77438 17.215 6.04378 17.5535 6.14043C17.8924 6.23741 18.2572 6.14649 18.5096 5.90268C20.6737 3.85523 23.5788 2.71061 26.6901 2.67963C26.7337 2.67929 26.7772 2.67862 26.8208 2.67862C29.8913 2.67862 32.7386 3.77475 34.8509 5.77303C35.2422 6.14312 35.8621 6.12932 36.2364 5.74205Z" fill="#6B5F44"/>
<path d="M33.0747 8.72668C33.4503 8.3411 33.4384 7.7272 33.0488 7.35576C31.3755 5.76899 29.143 4.8904 26.8255 4.90691C26.7748 4.90691 26.7238 4.90691 26.6731 4.90792C24.3008 4.94058 22.0292 5.86059 20.3143 7.48339C20.0592 7.72249 19.9527 8.07843 20.0353 8.41653C20.1177 8.75463 20.377 9.02269 20.7145 9.11967C21.0517 9.21666 21.4161 9.12708 21.6689 8.88563C24.4798 6.22596 28.9746 6.16669 31.6892 8.75328C32.0791 9.12506 32.6997 9.11327 33.0747 8.72668Z" fill="#6B5F44"/>
<path d="M30.0784 11.5766C30.4527 11.1894 30.4384 10.5751 30.0471 10.205C28.2349 8.49064 25.2243 8.54889 23.3362 10.3354C22.9449 10.7051 22.9309 11.3194 23.3045 11.7066C23.6785 12.0942 24.2991 12.1084 24.6907 11.7383C25.8119 10.6765 27.6456 10.6172 28.6929 11.6083C29.0842 11.9777 29.7045 11.9639 30.0784 11.5766Z" fill="#6B5F44"/>
<path d="M26.6806 12.9913C25.3607 12.9913 24.2909 14.0501 24.2909 15.3563C24.2909 16.6619 25.3607 17.721 26.6806 17.721C27.9997 17.721 29.0698 16.6619 29.0698 15.3563C29.0681 14.0508 27.9994 12.993 26.6806 12.9913ZM26.6806 15.7813C26.4431 15.7813 26.2508 15.5911 26.2508 15.3563C26.2508 15.1213 26.4431 14.931 26.6806 14.931C26.9174 14.931 27.11 15.1213 27.11 15.3563C27.1096 15.5907 26.9174 15.781 26.6806 15.7813Z" fill="#6B5F44"/>
</svg>
