<svg width="46" height="45" viewBox="0 0 46 45" fill="none" xmlns="http://www.w3.org/2000/svg">
<g clip-path="url(#clip0)">
<path d="M40.4775 10.7926C40.0149 10.4663 39.7387 9.93713 39.7387 9.37797V0.872845C39.7387 0.390734 39.341 0 38.8503 0H34.2991C33.8084 0 33.4107 0.390734 33.4107 0.872845V9.37797C33.4107 9.93713 33.1345 10.4663 32.6719 10.7926C29.5366 13.004 27.6648 16.5885 27.6648 20.3809V21.4185C27.5104 21.055 27.3473 20.6953 27.1734 20.3407C25.8048 17.5479 25.0812 14.4333 25.0812 11.3337V1.80399C25.0809 0.809086 24.2574 0 23.2451 0H19.6923C18.6797 0 17.8563 0.809086 17.8563 1.80399V11.3415C17.8563 14.4364 17.1348 17.5466 15.7676 20.3414L15.7648 20.3468C15.5933 20.697 15.4327 21.0523 15.28 21.4113V18.1398C15.28 15.046 13.5244 12.2328 10.7604 10.8195V0.872845C10.7604 0.390734 10.3624 0 9.87203 0H5.40796C4.91762 0 4.51959 0.390734 4.51959 0.872845V10.8195C1.75557 12.2328 0 15.046 0 18.1398V43.8168C0 44.2989 0.397685 44.6897 0.888371 44.6897H14.3916C14.6259 44.6897 14.8382 44.6 14.9968 44.4544C15.3261 44.6051 15.6929 44.6897 16.0795 44.6897H26.8653C27.3903 44.6897 27.8789 44.5342 28.2866 44.2679C28.5976 44.5301 29.0005 44.6897 29.4415 44.6897H43.7079C44.6875 44.6897 45.4846 43.9065 45.4846 42.944V20.3809C45.4846 16.5888 43.6128 13.004 40.4775 10.7926ZM35.1875 8.72845V5.08091H37.9619V8.72845H35.1875ZM37.9619 1.74569V3.33522H35.1875V1.74569H37.9619ZM19.633 11.3415V5.9425H23.3041V11.3337C23.3041 12.4888 23.3992 13.6454 23.5811 14.7896H19.3575C19.5386 13.6477 19.633 12.494 19.633 11.3415ZM19.633 1.80399C19.633 1.77194 19.6597 1.74569 19.6923 1.74569H23.2451C23.2778 1.74569 23.3041 1.77194 23.3041 1.80399V4.19682H19.633V1.80399ZM8.98366 1.74569V7.38202H6.29633V1.74569H8.98366ZM5.76192 12.1704C6.08639 12.032 6.29633 11.7176 6.29633 11.3698V9.12771H8.98366V11.3698C8.98366 11.7173 9.1936 12.032 9.51807 12.1704C11.9389 13.2035 13.5032 15.5465 13.5032 18.1398V21.472H7.10697C6.61628 21.472 6.2186 21.8627 6.2186 22.3448C6.2186 22.8269 6.61628 23.2177 7.10697 23.2177H13.5032V35.9452H1.77674V18.1398C1.77674 15.5465 3.34111 13.2035 5.76192 12.1704ZM13.5032 42.944H1.77674V37.6909H13.5032V42.944ZM26.8653 42.944H16.0795C15.6385 42.944 15.28 42.5918 15.28 42.1584V30.0975C15.28 27.0026 16.0014 23.8924 17.3687 21.0976L17.3715 21.0922C18.0818 19.64 18.6298 18.1074 19.0091 16.535H23.9298C24.3105 18.1095 24.8598 19.6441 25.5726 21.0983C26.9412 23.8907 27.6648 27.0053 27.6648 30.105V42.1584C27.6648 42.5918 27.306 42.944 26.8653 42.944ZM43.7079 42.944H29.4415V20.3809C29.4415 17.1497 31.0364 14.0951 33.7081 12.2106C34.3227 11.7769 34.7718 11.1642 35.005 10.4741H38.1441C38.3776 11.1642 38.8267 11.7769 39.4413 12.2106C42.113 14.0951 43.7079 17.1497 43.7079 20.3809V42.944Z" fill="#6B5F44"/>
<path d="M3.85825 23.2177C4.0918 23.2177 4.32118 23.1243 4.48636 22.962C4.65154 22.7997 4.74662 22.5743 4.74662 22.3449C4.74662 22.1154 4.65154 21.89 4.48636 21.7277C4.32118 21.5654 4.0918 21.472 3.85825 21.472C3.62471 21.472 3.39533 21.5654 3.23014 21.7277C3.06496 21.89 2.96988 22.1154 2.96988 22.3449C2.96988 22.5743 3.06496 22.7997 3.23014 22.962C3.39533 23.1243 3.62471 23.2177 3.85825 23.2177Z" fill="#6B5F44"/>
<path d="M7.64001 32.8667C9.48373 32.8667 10.9835 31.3928 10.9835 29.5816C10.9835 27.7701 9.48373 26.2965 7.64001 26.2965C5.79629 26.2965 4.29647 27.7701 4.29647 29.5816C4.29647 31.3928 5.79629 32.8667 7.64001 32.8667ZM7.64001 28.0422C8.50409 28.0422 9.2068 28.7326 9.2068 29.5816C9.2068 30.4302 8.50409 31.121 7.64001 31.121C6.77593 31.121 6.07321 30.4302 6.07321 29.5816C6.07321 28.7326 6.77593 28.0422 7.64001 28.0422Z" fill="#6B5F44"/>
<path d="M40.8667 28.4548C40.6332 28.4548 40.4038 28.5482 40.2386 28.7105C40.0734 28.8728 39.9784 29.0971 39.9784 29.3276C39.9784 29.5571 40.0734 29.7825 40.2386 29.9447C40.4038 30.107 40.6332 30.2005 40.8667 30.2005C41.1003 30.2005 41.3297 30.107 41.4948 29.9447C41.66 29.7825 41.7551 29.5571 41.7551 29.3276C41.7551 29.0982 41.66 28.8728 41.4948 28.7105C41.3297 28.5482 41.1003 28.4548 40.8667 28.4548Z" fill="#6B5F44"/>
<path d="M31.3943 23.2177V35.4375C31.3943 35.9196 31.792 36.3104 32.2826 36.3104H40.8669C41.3572 36.3104 41.7552 35.9196 41.7552 35.4375V32.5571C41.7552 32.075 41.3572 31.6843 40.8669 31.6843C40.3762 31.6843 39.9785 32.075 39.9785 32.5571V34.5647H33.171V24.0905H39.9785V25.6698C39.9785 26.152 40.3762 26.5427 40.8669 26.5427C41.3572 26.5427 41.7552 26.152 41.7552 25.6698V23.2177C41.7552 22.7356 41.3572 22.3448 40.8669 22.3448H32.2826C31.792 22.3448 31.3943 22.7356 31.3943 23.2177Z" fill="#6B5F44"/>
<path d="M24.9959 29.153H17.949C17.4583 29.153 17.0606 29.5438 17.0606 30.0259V39.1035C17.0606 39.5856 17.4583 39.9763 17.949 39.9763H24.9959C25.4866 39.9763 25.8843 39.5856 25.8843 39.1035V30.0259C25.8843 29.5438 25.4866 29.153 24.9959 29.153ZM24.1076 38.2306H18.8374V30.8987H24.1076V38.2306Z" fill="#6B5F44"/>
</g>
<defs>
<clipPath id="clip0">
<rect width="45.4846" height="44.6897" fill="white"/>
</clipPath>
</defs>
</svg>
